<svg id="Layer_1" data-name="Layer 1" xmlns="http://www.w3.org/2000/svg" xmlns:xlink="http://www.w3.org/1999/xlink" viewBox="0 0 246.55 204.82" width="246.55" height="204.82"><defs><style>.cls-1{fill:#ede6f2;}.cls-2,.cls-32{fill:#202340;}.cls-2{fill-opacity:0.1;}.Graphic-Style-6,.cls-3{fill:#686b8c;}.cls-4{fill:url(#linear-gradient);}.cls-5{fill:url(#linear-gradient-2);}.cls-6{fill:url(#linear-gradient-3);}.cls-7{fill:url(#linear-gradient-4);}.cls-8{fill:url(#linear-gradient-5);}.cls-9{fill:url(#linear-gradient-6);}.cls-10{fill:url(#linear-gradient-7);}.cls-11{fill:url(#linear-gradient-8);}.cls-12{fill:url(#linear-gradient-9);}.cls-13{fill:url(#linear-gradient-10);}.cls-14{fill:url(#linear-gradient-11);}.cls-15{fill:url(#linear-gradient-12);}.cls-16{fill:url(#linear-gradient-13);}.cls-17{fill:url(#linear-gradient-14);}.cls-18{fill:url(#linear-gradient-15);}.cls-19{fill:url(#linear-gradient-16);}.cls-20{fill:url(#linear-gradient-17);}.cls-21{fill:url(#linear-gradient-18);}.cls-22{fill:url(#linear-gradient-19);}.cls-23{fill:url(#linear-gradient-20);}.cls-24{fill:url(#linear-gradient-21);}.cls-25{fill:url(#linear-gradient-22);}.cls-26{fill:url(#linear-gradient-23);}.cls-27{fill:url(#linear-gradient-24);}.cls-28{fill:url(#linear-gradient-25);}.cls-29{fill:url(#linear-gradient-26);}.cls-30{fill:url(#linear-gradient-27);}.cls-31{fill:url(#linear-gradient-28);}.cls-32{fill-opacity:0.05;}.cls-33{fill:#38408f;}.cls-34{fill:#ced0e0;}.cls-35{fill:#fffef7;}.Graphic-Style-6{opacity:0.2;}.cls-36{fill:#8a91cc;}.cls-37{fill:url(#linear-gradient-29);}.cls-38{fill:url(#linear-gradient-30);}.cls-39{fill:url(#linear-gradient-31);}.cls-40{fill:url(#linear-gradient-32);}.cls-41{fill:url(#linear-gradient-33);}.cls-42{fill:url(#linear-gradient-34);}.cls-43{fill:#fcfafc;}</style><linearGradient id="linear-gradient" x1="173.27" y1="11.34" x2="201.83" y2="43.04" gradientUnits="userSpaceOnUse"><stop offset="0" stop-color="#0a84ff"/><stop offset="0.99" stop-color="#00feff"/></linearGradient><linearGradient id="linear-gradient-2" x1="196.08" y1="12.35" x2="201.66" y2="40.56" xlink:href="#linear-gradient"/><linearGradient id="linear-gradient-3" x1="177.73" y1="7.98" x2="203.01" y2="51.76" gradientUnits="userSpaceOnUse"><stop offset="0" stop-color="#0055c4"/><stop offset="0.99" stop-color="#00b0bd"/></linearGradient><linearGradient id="linear-gradient-4" x1="90.03" y1="58.25" x2="198.7" y2="41.88" gradientUnits="userSpaceOnUse"><stop offset="0" stop-color="#ffe900"/><stop offset="0.51" stop-color="#ff9500"/><stop offset="1" stop-color="#ff0039"/></linearGradient><linearGradient id="linear-gradient-5" x1="78.42" y1="55.63" x2="202.76" y2="46.58" xlink:href="#linear-gradient-4"/><linearGradient id="linear-gradient-6" x1="119.62" y1="20.35" x2="156.89" y2="84.9" gradientUnits="userSpaceOnUse"><stop offset="0" stop-color="#fa0"/><stop offset="1" stop-color="#eb0000"/></linearGradient><linearGradient id="linear-gradient-7" x1="125.7" y1="31.45" x2="203.37" y2="43.64" gradientUnits="userSpaceOnUse"><stop offset="0" stop-color="#30e60b"/><stop offset="1" stop-color="#ffe900"/></linearGradient><linearGradient id="linear-gradient-8" x1="144.72" y1="17.06" x2="176.71" y2="72.46" gradientUnits="userSpaceOnUse"><stop offset="0" stop-color="#11ad00"/><stop offset="1" stop-color="#3fc70a"/></linearGradient><linearGradient id="linear-gradient-9" x1="85.29" y1="72.18" x2="197.79" y2="52.32" gradientUnits="userSpaceOnUse"><stop offset="0" stop-color="#ed00b5"/><stop offset="1" stop-color="#ff0039"/></linearGradient><linearGradient id="linear-gradient-10" x1="93.52" y1="78.51" x2="199.4" y2="61.44" xlink:href="#linear-gradient-9"/><linearGradient id="linear-gradient-11" x1="89.7" y1="63.55" x2="203.96" y2="63.55" gradientUnits="userSpaceOnUse"><stop offset="0" stop-color="#a80077"/><stop offset="1" stop-color="#b8003d"/></linearGradient><linearGradient id="linear-gradient-12" x1="86.16" y1="80.34" x2="194.13" y2="78.25" gradientUnits="userSpaceOnUse"><stop offset="0.01" stop-color="#ed00b5"/><stop offset="1" stop-color="#9400ff"/></linearGradient><linearGradient id="linear-gradient-13" x1="90.17" y1="78.28" x2="155.65" y2="86.64" xlink:href="#linear-gradient-12"/><linearGradient id="linear-gradient-14" x1="93.07" y1="90.49" x2="118.62" y2="102.57" xlink:href="#linear-gradient-12"/><linearGradient id="linear-gradient-15" x1="97.71" y1="81.13" x2="115.47" y2="99.24" xlink:href="#linear-gradient-12"/><linearGradient id="linear-gradient-16" x1="95.9" y1="81.48" x2="193.59" y2="81.48" gradientUnits="userSpaceOnUse"><stop offset="0" stop-color="#a10071"/><stop offset="1" stop-color="#6100a3"/></linearGradient><linearGradient id="linear-gradient-17" x1="90.67" y1="93.79" x2="110.23" y2="93.79" xlink:href="#linear-gradient-16"/><linearGradient id="linear-gradient-18" x1="9.1" y1="129.35" x2="104.22" y2="93.91" xlink:href="#linear-gradient-7"/><linearGradient id="linear-gradient-19" x1="2.75" y1="109.04" x2="87.17" y2="109.04" xlink:href="#linear-gradient-8"/><linearGradient id="linear-gradient-20" x1="45.96" y1="88.56" x2="85.34" y2="108.45" xlink:href="#linear-gradient"/><linearGradient id="linear-gradient-21" x1="38.07" y1="84.57" x2="89.13" y2="110.37" xlink:href="#linear-gradient-3"/><linearGradient id="linear-gradient-22" x1="32.02" y1="130.93" x2="88.09" y2="104.22" xlink:href="#linear-gradient-4"/><linearGradient id="linear-gradient-23" x1="26.2" y1="117.9" x2="81.5" y2="117.9" xlink:href="#linear-gradient-6"/><linearGradient id="linear-gradient-24" x1="47.06" y1="132.61" x2="79.81" y2="114.58" xlink:href="#linear-gradient-9"/><linearGradient id="linear-gradient-25" x1="45.17" y1="122.54" x2="80.51" y2="122.54" xlink:href="#linear-gradient-11"/><linearGradient id="linear-gradient-26" x1="61.82" y1="134.58" x2="82.75" y2="116.34" xlink:href="#linear-gradient-12"/><linearGradient id="linear-gradient-27" x1="62.1" y1="126.15" x2="81.48" y2="126.15" xlink:href="#linear-gradient-16"/><linearGradient id="linear-gradient-28" x1="221.82" y1="66.72" x2="73.94" y2="208.18" gradientUnits="userSpaceOnUse"><stop offset="0" stop-color="#fcfafc"/><stop offset="0.47" stop-color="#faf7fa"/><stop offset="0.84" stop-color="#f2edf5"/><stop offset="1" stop-color="#ede6f2"/></linearGradient><linearGradient id="linear-gradient-29" x1="59.68" y1="187.36" x2="86.04" y2="204.66" gradientUnits="userSpaceOnUse"><stop offset="0" stop-color="#b3b0ae" stop-opacity="0.5"/><stop offset="1" stop-color="#ff1ad9"/></linearGradient><linearGradient id="linear-gradient-30" x1="62.35" y1="189.12" x2="84.3" y2="203.51" gradientUnits="userSpaceOnUse"><stop offset="0" stop-color="#7f83ab"/><stop offset="1" stop-color="#b5007f"/></linearGradient><linearGradient id="linear-gradient-31" x1="-131.54" y1="1596.68" x2="-101.75" y2="1616.23" gradientTransform="matrix(0.56, -0.76, 0.76, 0.58, -991.08, -823.56)" xlink:href="#linear-gradient-29"/><linearGradient id="linear-gradient-32" x1="148.28" y1="204.74" x2="174.43" y2="195.34" xlink:href="#linear-gradient-30"/><linearGradient id="linear-gradient-33" x1="222.55" y1="170.1" x2="285.79" y2="72.06" gradientTransform="matrix(1, -0.08, 0.08, 1, -33.87, -91.87)" gradientUnits="userSpaceOnUse"><stop offset="0" stop-color="#fcfafc"/><stop offset="1" stop-color="#ff1ad9"/></linearGradient><linearGradient id="linear-gradient-34" x1="204.49" y1="54.82" x2="230.48" y2="5.43" gradientUnits="userSpaceOnUse"><stop offset="0" stop-color="#686b8c"/><stop offset="1" stop-color="#ff1ad9"/></linearGradient></defs><title>Whimsycorn-v3.0-Sticker</title><path class="cls-1" d="M90.31,190.39a21.06,21.06,0,0,0,9.52,3.41c6,.73,10.84-2.47,12.82-4a2.55,2.55,0,0,0,1-2V169.16L100.93,164Z" transform="translate(-2.73 -5.59)"/><path class="cls-2" d="M102.71,183.81c.82-2.37,2.05-4.87,4.35-5.87a8.68,8.68,0,0,1,3.65-.55,11.87,11.87,0,0,1,2.91.33v-8.56L100.93,164,90.31,190.39a21.06,21.06,0,0,0,9.52,3.41l.69.06A42.27,42.27,0,0,1,102.71,183.81Z" transform="translate(-2.73 -5.59)"/><path class="cls-3" d="M101.56,194.62a14.1,14.1,0,0,1-1.82-.11A21.78,21.78,0,0,1,89.88,191l-.43-.33,11.08-27.53,13.8,5.58v19.07a3.28,3.28,0,0,1-1.23,2.57A19.44,19.44,0,0,1,101.56,194.62Zm-10.37-4.5a21.68,21.68,0,0,0,8.73,3c5.78.69,10.52-2.5,12.29-3.9a1.84,1.84,0,0,0,.69-1.45V169.64L101.32,165Z" transform="translate(-2.73 -5.59)"/><path class="cls-1" d="M165.23,147.32a82.87,82.87,0,0,1,11.47,11.83C182.8,166.72,188,173.8,188,173.8a17.87,17.87,0,0,1-4.63,7.93,37.91,37.91,0,0,1-8.06,6.46s-2.92-12.44-7.8-19.89a135.67,135.67,0,0,0-9.77-13.05Z" transform="translate(-2.73 -5.59)"/><path class="cls-4" d="M199.72,53l-.09-.47-.26-1.37c-.23-1.21-.52-3-1-5.27A46.48,46.48,0,0,0,195.87,38a26.84,26.84,0,0,0-5.9-8.83A19.7,19.7,0,0,0,185.61,26a39.23,39.23,0,0,0-4.76-2.05,53.06,53.06,0,0,1-8.5-3.61,14.24,14.24,0,0,1-4.48-3.78,8.69,8.69,0,0,1-.78-1.22l-.22-.42.4.14c.28.09.65.25,1.18.42a26,26,0,0,0,4.74,1c2.16.32,4.92.42,8.68.94A28.51,28.51,0,0,1,188.3,19a21.12,21.12,0,0,1,7.08,4.58,24.41,24.41,0,0,1,6.94,13.16,25.67,25.67,0,0,1-.1,9.67,22.53,22.53,0,0,1-1.67,5.1A11.09,11.09,0,0,1,199.72,53Z" transform="translate(-2.73 -5.59)"/><path class="cls-5" d="M202.49,43.18s0-.35,0-1,0-1.65-.07-2.92a26.36,26.36,0,0,0-2.3-10.45A16.84,16.84,0,0,0,198.43,26c-.6-.81-1.25-1.56-1.88-2.27a40.36,40.36,0,0,1-3.14-3.85A11.25,11.25,0,0,1,192,17.17a6.39,6.39,0,0,1-.27-1s.25.18.71.56,1.18.93,2.19,1.63,2.31,1.54,3.93,2.78a20.49,20.49,0,0,1,2.6,2.35,14.86,14.86,0,0,1,2.43,3.59,16.45,16.45,0,0,1,1.63,7.65,16.23,16.23,0,0,1-.94,5.07A13.35,13.35,0,0,1,203,42.42,6.58,6.58,0,0,1,202.49,43.18Z" transform="translate(-2.73 -5.59)"/><path class="cls-6" d="M199.72,53.58l-.1,0a.52.52,0,0,1-.42-.41L199,52.09l-.15-.8c-.05-.28-.11-.59-.17-.93-.21-1.15-.46-2.58-.86-4.31a45.37,45.37,0,0,0-2.44-7.83,26.06,26.06,0,0,0-5.77-8.66,19,19,0,0,0-4.25-3.13,36.64,36.64,0,0,0-4.69-2,55.31,55.31,0,0,1-8.59-3.65,14.52,14.52,0,0,1-4.62-3.92,6.62,6.62,0,0,1-.68-1c-.05-.09-.09-.17-.13-.23a.08.08,0,0,1,0,0l-.22-.41a.53.53,0,0,1,.06-.6.55.55,0,0,1,.58-.17l.4.14.42.15c.21.08.46.18.75.27a25.67,25.67,0,0,0,4.65,1c1,.14,2,.24,3.29.35,1.55.14,3.31.3,5.39.59a29.48,29.48,0,0,1,6.56,1.65,21,21,0,0,1,5.68,3.31c-.45-.56-.87-1.11-1.21-1.62a11.94,11.94,0,0,1-1.49-2.88,5.9,5.9,0,0,1-.29-1.08.51.51,0,0,1,.25-.54.53.53,0,0,1,.59,0,7.79,7.79,0,0,1,.74.58c.67.53,1.38,1.06,2.15,1.6.34.24.7.49,1.11.76.82.57,1.76,1.2,2.85,2a20.88,20.88,0,0,1,2.66,2.4,15.39,15.39,0,0,1,2.52,3.73h0a16.84,16.84,0,0,1,1.69,7.89,17.24,17.24,0,0,1-1,5.24,14.28,14.28,0,0,1-1.3,2.72,4.89,4.89,0,0,1-.27.41,28.34,28.34,0,0,1-.45,3.42A23.26,23.26,0,0,1,201,51.77a10.82,10.82,0,0,1-.87,1.58A.54.54,0,0,1,199.72,53.58ZM168.06,15.87l.22.3,0,0a13.52,13.52,0,0,0,4.3,3.63A53.42,53.42,0,0,0,181,23.4a38.64,38.64,0,0,1,4.83,2.08,20,20,0,0,1,4.48,3.31,27.22,27.22,0,0,1,6,9,46.63,46.63,0,0,1,2.5,8c.4,1.74.66,3.19.87,4.35.06.34.11.65.17.93l.07.4.09-.19a22.22,22.22,0,0,0,1.64-5,26.37,26.37,0,0,0,.44-3.43.56.56,0,0,1,.1-.28l.33-.48a13.57,13.57,0,0,0,1.19-2.51,16,16,0,0,0-.66-12.3h0a14.33,14.33,0,0,0-2.35-3.47,19.64,19.64,0,0,0-2.53-2.28c-1.06-.82-2-1.45-2.8-2l-1.12-.77c-.54-.38-1.05-.75-1.54-1.13a12.49,12.49,0,0,0,1.1,1.94A37.73,37.73,0,0,0,197,23.41c.67.75,1.31,1.5,1.91,2.31a17.73,17.73,0,0,1,1.71,2.83,23.61,23.61,0,0,1,2,7,.54.54,0,0,1-1.06.19A24,24,0,0,0,195,24a20.6,20.6,0,0,0-6.89-4.46,28.34,28.34,0,0,0-6.32-1.59c-2-.28-3.8-.44-5.34-.58-1.26-.11-2.36-.21-3.34-.35a28.13,28.13,0,0,1-4.83-1.07Z" transform="translate(-2.73 -5.59)"/><path class="cls-7" d="M86.52,47l1,.31c.69.23,1.75.48,3.12.79a39.28,39.28,0,0,0,12.26.4,58.94,58.94,0,0,0,8.86-1.77A90.53,90.53,0,0,0,122.28,43c3.8-1.59,7.91-3.53,12.54-5.57a113.31,113.31,0,0,1,15.71-5.84,80.93,80.93,0,0,1,16.89-2.82c2.66-.17,5.22-.18,7.7-.1a56.4,56.4,0,0,1,7.3.72,30.55,30.55,0,0,1,12.65,4.95A21.09,21.09,0,0,1,202.36,43a16,16,0,0,1,1.22,4.64,14.79,14.79,0,0,1-.15,4,13,13,0,0,1-2.28,5.5,10.24,10.24,0,0,1-2.44,2.41,10,10,0,0,1-1,.57l.5-.81a12.29,12.29,0,0,0,1.08-2.58,12.45,12.45,0,0,0,.37-4.46,11.88,11.88,0,0,0-2-5.57,15.32,15.32,0,0,0-5.72-5,19.24,19.24,0,0,0-4.28-1.65,28.73,28.73,0,0,0-5.22-.86,52.09,52.09,0,0,0-6.17-.07c-2.23.09-4.6.28-7,.55a100.12,100.12,0,0,0-15.67,3c-5.5,1.52-10.61,3.5-15.52,5.31s-9.57,3.46-14,4.64c-2.22.59-4.37,1.06-6.47,1.43a55.88,55.88,0,0,1-6,.67,43.22,43.22,0,0,1-10.14-.53,32,32,0,0,1-7.35-2.15c-.5-.2-1-.43-1.4-.65s-.84-.42-1.23-.64c-.75-.46-1.42-.84-2-1.24s-1-.77-1.42-1.07-.68-.62-.92-.84C86.74,47.26,86.52,47,86.52,47Z" transform="translate(-2.73 -5.59)"/><path class="cls-8" d="M198.88,50.89a14.22,14.22,0,0,0-1.69-5.7,20.18,20.18,0,0,0-3.91-5.09,25.91,25.91,0,0,0-5.59-4.16,34.22,34.22,0,0,0-15.24-4.15,41.28,41.28,0,0,0-8.86.54,57.37,57.37,0,0,0-9,2.3,114.47,114.47,0,0,0-17.36,8.09c-5.65,3.1-10.6,5.84-15.22,7.79a54.73,54.73,0,0,1-6.65,2.38,62.73,62.73,0,0,1-6.53,1.41,68.51,68.51,0,0,1-12,.87,91.13,91.13,0,0,1-10.27-.74C80.36,53.67,75.6,52.66,72.41,52c-1.61-.3-2.81-.59-3.63-.74L67.55,51s.26.26.8.76,1.38,1.26,2.57,2.21A63.84,63.84,0,0,0,83,61.49a65.22,65.22,0,0,0,10.64,3.92,60.19,60.19,0,0,0,14.48,2.07,57.52,57.52,0,0,0,8.63-.52l1.14-.14,1.17-.21c.79-.13,1.57-.31,2.37-.48,1.57-.37,3.16-.79,4.72-1.31a71.49,71.49,0,0,0,6.94-2.64,43.79,43.79,0,0,0,10.53-.51,53.09,53.09,0,0,0,8.52-2.17q2.27-.77,4.64-1.8c1.59-.69,3.22-1.47,4.82-2.3,3.19-1.67,5.94-3.19,8.46-4.29A25.34,25.34,0,0,1,176.93,49a19.93,19.93,0,0,1,5.9.15,44.86,44.86,0,0,1,5,1.17c1.51.44,2.76.82,3.79,1.22l.69.29a7.34,7.34,0,0,1,.49,1.11,9.44,9.44,0,0,1,.49,2.86,15.3,15.3,0,0,1-.84,5,22.07,22.07,0,0,1-1.25,3l-.51,1s.38-.18,1.1-.62a15.72,15.72,0,0,0,3-2.46,14.83,14.83,0,0,0,1.86-2.37,14,14,0,0,0,1.65-3.51A13.31,13.31,0,0,0,198.88,50.89Z" transform="translate(-2.73 -5.59)"/><path class="cls-9" d="M108.54,68h-.42A61.12,61.12,0,0,1,93.5,65.93a65.87,65.87,0,0,1-10.73-4,64.54,64.54,0,0,1-12.18-7.55c-1.06-.84-1.83-1.53-2.39-2L68,52.19c-.55-.51-.81-.77-.82-.78a.55.55,0,0,1-.09-.63.53.53,0,0,1,.57-.27l1.23.22c.38.07.84.17,1.37.29l2.26.46.34.07c3.11.64,7.81,1.61,13.75,2.34a88.84,88.84,0,0,0,10.21.74c1.13,0,2.27,0,3.39,0a31.19,31.19,0,0,1-6.27-2c-.48-.19-.93-.41-1.42-.66l-.35-.18-.9-.47L90.7,51c-.53-.32-1-.63-1.47-.94s-1-.77-1.43-1.08-.6-.54-.82-.75l-.13-.12c-.49-.45-.71-.68-.72-.69a.54.54,0,0,1,.54-.89l1,.3a31.32,31.32,0,0,0,3.08.78,38.75,38.75,0,0,0,12.08.4,58.16,58.16,0,0,0,8.79-1.76,88,88,0,0,0,10.4-3.76c2.38-1,4.9-2.13,7.56-3.33,1.59-.72,3.24-1.47,5-2.23a115.07,115.07,0,0,1,15.78-5.87,82.49,82.49,0,0,1,17-2.84c2.52-.15,5.13-.19,7.75-.09a54.38,54.38,0,0,1,7.37.73,31.09,31.09,0,0,1,12.88,5,21.71,21.71,0,0,1,7.46,8.95,16.25,16.25,0,0,1,1.26,4.8,15.27,15.27,0,0,1-.15,4.18,13.54,13.54,0,0,1-2.38,5.73A11,11,0,0,1,199,60.07a11.3,11.3,0,0,1-1,.61.53.53,0,0,1-.63-.11.54.54,0,0,1-.06-.65l.55-.92a11.88,11.88,0,0,0,1-2.34,11.09,11.09,0,0,0,.38-2.22,13.73,13.73,0,0,1-.38,1.5,14.56,14.56,0,0,1-1.71,3.64A15.79,15.79,0,0,1,195.18,62a16.21,16.21,0,0,1-3.1,2.54,9.65,9.65,0,0,1-1.15.65.54.54,0,0,1-.62-.11.53.53,0,0,1-.08-.62l.57-1.09A21.73,21.73,0,0,0,192,60.63a14.39,14.39,0,0,0,.81-4.78,8.71,8.71,0,0,0-.45-2.69,6.56,6.56,0,0,0-.38-.87l-.5-.21c-1.1-.43-2.51-.85-3.74-1.2a43.93,43.93,0,0,0-4.95-1.16,19.33,19.33,0,0,0-5.73-.15,25.2,25.2,0,0,0-6.73,2c-1.9.83-3.89,1.88-6.2,3.1l-2.24,1.17c-1.66.87-3.3,1.65-4.84,2.32s-3.14,1.29-4.69,1.82a54.18,54.18,0,0,1-8.61,2.19,44,44,0,0,1-10.52.52,72.48,72.48,0,0,1-6.86,2.61c-1.46.48-3,.91-4.77,1.32l-.56.12c-.6.13-1.22.27-1.84.37l-1.17.2-1.16.15A57.58,57.58,0,0,1,108.54,68ZM69.28,51.9c.5.46,1.15,1,2,1.68a62.89,62.89,0,0,0,12,7.42,63.66,63.66,0,0,0,10.55,3.89,60,60,0,0,0,14.35,2,57.53,57.53,0,0,0,8.55-.51l1.14-.15,1.15-.2c.6-.09,1.18-.22,1.79-.35l.55-.12c1.71-.4,3.25-.83,4.68-1.3a73,73,0,0,0,6.88-2.62.47.47,0,0,1,.26,0,42.51,42.51,0,0,0,10.4-.5A52,52,0,0,0,152,59c1.53-.52,3.08-1.12,4.61-1.78s3.13-1.43,4.78-2.29l2.23-1.17c2.32-1.23,4.34-2.29,6.27-3.13a26,26,0,0,1,7-2.11,20.06,20.06,0,0,1,6,.15A44.69,44.69,0,0,1,188,49.85c1.8.52,2.91.87,3.83,1.23l.71.3a.55.55,0,0,1,.26.24,8.11,8.11,0,0,1,.53,1.18,9.66,9.66,0,0,1,.51,3A15.7,15.7,0,0,1,193,61a21.13,21.13,0,0,1-.95,2.36,14.91,14.91,0,0,0,2.38-2A14.51,14.51,0,0,0,196.2,59a13.72,13.72,0,0,0,1.59-3.38,12.73,12.73,0,0,0,.56-4.69,13.15,13.15,0,0,0-.65-3.22.53.53,0,0,1,.29-.66.54.54,0,0,1,.68.23,12.54,12.54,0,0,1,1.56,5,13,13,0,0,1-.38,4.65,12,12,0,0,1-.55,1.53,10.35,10.35,0,0,0,1.42-1.58,12.43,12.43,0,0,0,2.18-5.28,13.57,13.57,0,0,0,.14-3.89h0a15.55,15.55,0,0,0-1.17-4.48,20.64,20.64,0,0,0-7.1-8.49,30,30,0,0,0-12.44-4.86,54,54,0,0,0-7.23-.71c-2.59-.09-5.16-.06-7.65.09a81.05,81.05,0,0,0-16.78,2.8A114,114,0,0,0,135,37.9c-1.72.76-3.37,1.51-5,2.23-2.67,1.2-5.19,2.34-7.58,3.34A89.43,89.43,0,0,1,112,47.27,58.29,58.29,0,0,1,103,49.06a39.78,39.78,0,0,1-12.43-.41c-.86-.19-1.53-.35-2.06-.48.36.28.81.62,1.35,1a16.27,16.27,0,0,0,1.39.89l.55.34.84.44L93,51a13.47,13.47,0,0,0,1.34.63,31.53,31.53,0,0,0,7.25,2.12c1.2.21,2.46.37,3.76.47a.55.55,0,0,1,.5.53.54.54,0,0,1-.48.54,71.43,71.43,0,0,1-8.57.39A90.64,90.64,0,0,1,86.47,55c-6-.74-10.71-1.72-13.83-2.36l-.34-.07c-.87-.16-1.65-.33-2.27-.47Z" transform="translate(-2.73 -5.59)"/><path class="cls-2" d="M180.93,179.91a103.73,103.73,0,0,0-7.25-15.78c-1.34-2.37-2.81-4.79-3.1-7.49a17.39,17.39,0,0,1,.2-4.15,67.87,67.87,0,0,0-5.55-5.17l-7.45,7.93a135.67,135.67,0,0,1,9.77,13.05c4.88,7.45,7.8,19.89,7.8,19.89a37.18,37.18,0,0,0,6.72-5.12C181.67,182,181.3,181,180.93,179.91Z" transform="translate(-2.73 -5.59)"/><path class="cls-10" d="M198.83,59.07l.22-.84a7.4,7.4,0,0,0,.23-1,11.25,11.25,0,0,0,.23-1.46,19.45,19.45,0,0,0-1.38-9.49,22.08,22.08,0,0,0-1.48-3,19.1,19.1,0,0,0-2.13-2.93A24.9,24.9,0,0,0,188,35.11a35.48,35.48,0,0,0-9.39-3.62,47.32,47.32,0,0,0-11.74-1.28c-8.39.16-15.92,2.5-22.58,4.14a94.87,94.87,0,0,1-17.25,3.23,38.42,38.42,0,0,1-10.62-.65c-1.15-.27-2-.55-2.54-.71l-.83-.27s1-.12,3.08-.25a63.21,63.21,0,0,0,9.31-1.77c4.16-1.12,9.28-3,15.83-5.49,3.28-1.21,6.94-2.56,11.14-3.73a57.23,57.23,0,0,1,14.34-2.26c10.64-.11,19.68,3.06,25.85,7.87a26.17,26.17,0,0,1,6.94,8,22.17,22.17,0,0,1,2.58,7.94,19,19,0,0,1-.2,6.19,16.52,16.52,0,0,1-1.36,4,12.33,12.33,0,0,1-1.27,2Z" transform="translate(-2.73 -5.59)"/><path class="cls-11" d="M198.83,59.61a.5.5,0,0,1-.24-.06.52.52,0,0,1-.28-.61l.22-.85a7.46,7.46,0,0,0,.23-1V57a13.33,13.33,0,0,0,.21-1.35,18.89,18.89,0,0,0-1.35-9.25,20.25,20.25,0,0,0-1.44-2.87,18.45,18.45,0,0,0-2.07-2.86,24.43,24.43,0,0,0-6.38-5.13A35.12,35.12,0,0,0,178.5,32a46.58,46.58,0,0,0-11.62-1.26c-6.94.13-13.41,1.8-19.11,3.27l-3.34.85a93.69,93.69,0,0,1-17.34,3.24,39.17,39.17,0,0,1-10.77-.65c-.9-.22-1.62-.44-2.14-.6l-.44-.13-.84-.27a.53.53,0,0,1,.09-1s1.06-.13,3.1-.26l.71-.09a56.87,56.87,0,0,0,8.51-1.66c4-1.09,8.87-2.88,15.78-5.47,3-1.13,6.84-2.54,11.18-3.75a58.36,58.36,0,0,1,14.48-2.27c10.13-.11,19.44,2.72,26.19,8A26.85,26.85,0,0,1,200,38.05a22.73,22.73,0,0,1,2.64,8.13,19.59,19.59,0,0,1-.2,6.37,17.35,17.35,0,0,1-1.41,4.12,12.84,12.84,0,0,1-1.33,2.14l-.47.59A.53.53,0,0,1,198.83,59.61ZM167.57,29.67A48.1,48.1,0,0,1,178.75,31a36.29,36.29,0,0,1,9.52,3.68A25.07,25.07,0,0,1,194.92,40a19.61,19.61,0,0,1,2.19,3,21.77,21.77,0,0,1,1.51,3A20,20,0,0,1,200,55.79c0,.22,0,.43-.07.63,0-.08.08-.16.13-.24a16.42,16.42,0,0,0,1.31-3.85,18.5,18.5,0,0,0,.19-6,21.68,21.68,0,0,0-2.52-7.75,25.77,25.77,0,0,0-6.8-7.83c-6.56-5.11-15.62-7.86-25.51-7.75a56.57,56.57,0,0,0-14.21,2.24c-4.3,1.19-8.07,2.59-11.1,3.71-6.93,2.61-11.78,4.4-15.87,5.5a57,57,0,0,1-8.65,1.69l-.73.1h0l-.25,0,.63.16A38.47,38.47,0,0,0,127,37a93.24,93.24,0,0,0,17.15-3.21c1.1-.27,2.21-.55,3.34-.85,5.76-1.49,12.29-3.17,19.37-3.31Z" transform="translate(-2.73 -5.59)"/><path class="cls-12" d="M90.24,67.41l.92.23,1.15.22c.47.07,1,.17,1.61.24a90,90,0,0,0,11,.63c1.19,0,2.45,0,3.68-.14.66,0,1.09-.14,1.85-.25s1.39-.23,2.11-.37a73.92,73.92,0,0,0,9.26-2.3,94.37,94.37,0,0,0,10.43-4.26c3.75-1.75,7.78-3.84,12.3-6a113.77,113.77,0,0,1,13.37-5.63A57.73,57.73,0,0,1,170.7,46.9a44.44,44.44,0,0,1,6-.15,37.77,37.77,0,0,1,5.45.67,32.1,32.1,0,0,1,8.75,3.13,26.21,26.21,0,0,1,5.8,4.14,21.51,21.51,0,0,1,3.2,3.84,16,16,0,0,1,1.38,2.59l.37.89-.69-.49-.85-.63-1.23-.8c-.47-.3-1-.6-1.61-1l-1-.49c-.33-.17-.69-.34-1.07-.5a28.27,28.27,0,0,0-5.45-1.8,33.64,33.64,0,0,0-7.33-.87,38.72,38.72,0,0,0-9,1,66.22,66.22,0,0,0-10.85,3.47c-3.93,1.59-8.17,3.62-12.92,5.94s-9.35,4.47-13.83,6.15a63.94,63.94,0,0,1-13,3.51,56.22,56.22,0,0,1-11,.48l-1.21-.08-.6,0-.67-.07c-.88-.1-1.64-.25-2.38-.4-1.46-.33-2.77-.69-4-1.08a40.4,40.4,0,0,1-10-4.64A16.91,16.91,0,0,1,90.83,68C90.42,67.61,90.24,67.41,90.24,67.41Z" transform="translate(-2.73 -5.59)"/><path class="cls-13" d="M203.43,70.79s-1.11-.43-3.23-1.37a82.49,82.49,0,0,0-9.29-3.66,29.15,29.15,0,0,0-3.19-.8,23.89,23.89,0,0,0-3.46-.42,28.55,28.55,0,0,0-7.9.8,52.74,52.74,0,0,0-9.29,3.2c-3.34,1.47-6.95,3.35-11.07,5.37-2.06,1-4.12,2-6.2,2.85q-1.56.66-3.12,1.23c-1.13.37-2.29.78-3.4,1.05a48.19,48.19,0,0,1-12.15,1.34,66.14,66.14,0,0,1-9.84-.86,77.24,77.24,0,0,1-7.76-1.63,73.74,73.74,0,0,1-10-3.37c-2.16-.91-3.2-1.47-3.2-1.47s1-.18,3.13-.38,5.32-.43,9.66-.68,9.83-.52,16.29-1.36a59.42,59.42,0,0,0,10.06-2.11c.86-.24,1.66-.59,2.48-.9.4-.14.89-.38,1.35-.57l1.42-.65c1.93-.89,3.95-1.88,6.12-2.94a107.74,107.74,0,0,1,12.9-5.59,44.7,44.7,0,0,1,12.51-2.42A29.23,29.23,0,0,1,187.08,57a28,28,0,0,1,7.39,4,35.41,35.41,0,0,1,4.47,4.05,39.56,39.56,0,0,1,2.66,3.11A28,28,0,0,1,203.43,70.79Z" transform="translate(-2.73 -5.59)"/><path class="cls-14" d="M131.58,80.92h-.45a66.52,66.52,0,0,1-9.92-.87,79.73,79.73,0,0,1-7.81-1.64,77.27,77.27,0,0,1-10-3.39l-.66-.21a41.1,41.1,0,0,1-10.11-4.7,16.39,16.39,0,0,1-2.15-1.7c-.43-.42-.62-.64-.63-.65a.54.54,0,0,1,0-.63.52.52,0,0,1,.58-.24l.93.23,1.13.22.49.07c.33.06.68.11,1.08.16a87.89,87.89,0,0,0,10.88.62c1.37,0,2.56,0,3.64-.13.44,0,.78-.09,1.2-.16l.61-.09c.78-.13,1.45-.24,2.1-.37a73.71,73.71,0,0,0,9.18-2.28A92.86,92.86,0,0,0,132,60.92c2.22-1,4.54-2.19,7-3.42,1.7-.84,3.45-1.72,5.29-2.61a113,113,0,0,1,13.44-5.66,58,58,0,0,1,13-2.86,46.32,46.32,0,0,1,6-.16,36.78,36.78,0,0,1,5.54.69,32.73,32.73,0,0,1,8.89,3.17A27.22,27.22,0,0,1,197,54.3a22.44,22.44,0,0,1,3.28,3.93,17.94,17.94,0,0,1,1.43,2.69l.37.88a.55.55,0,0,1-.17.63.54.54,0,0,1-.64,0l-1.55-1.13-1.2-.79-.85-.5-.73-.42-1-.48a9.37,9.37,0,0,0-1-.48,28.19,28.19,0,0,0-5.37-1.78,27.91,27.91,0,0,0-2.81-.52l.47.16a28.1,28.1,0,0,1,7.53,4.1,36.19,36.19,0,0,1,4.54,4.11c1,1.07,1.88,2.1,2.7,3.16h0a30.35,30.35,0,0,1,1.86,2.64.54.54,0,0,1-.06.62.51.51,0,0,1-.6.15s-1.15-.45-3.25-1.38l-1.34-.59a67.47,67.47,0,0,0-7.89-3,28.41,28.41,0,0,0-3.12-.78,21.67,21.67,0,0,0-3.39-.41,27.89,27.89,0,0,0-7.76.78A52.51,52.51,0,0,0,167.29,69c-2.38,1-4.94,2.33-7.65,3.68l-3.4,1.69c-2.38,1.16-4.36,2.07-6.23,2.86-1,.41-2,.81-3.15,1.24l-.72.23c-.9.3-1.83.61-2.73.83A48.21,48.21,0,0,1,131.58,80.92ZM92,68.35c.31.25.7.55,1.18.88a40.93,40.93,0,0,0,9.84,4.57l.67.21h.06a74.81,74.81,0,0,0,9.89,3.35,75.24,75.24,0,0,0,7.7,1.62,64.45,64.45,0,0,0,9.76.85,47.63,47.63,0,0,0,12-1.32c.86-.21,1.77-.51,2.66-.8l.7-.24c1.11-.41,2.13-.81,3.08-1.21,1.85-.78,3.82-1.68,6.18-2.84l3.39-1.68c2.72-1.36,5.29-2.65,7.7-3.7a53.9,53.9,0,0,1,9.38-3.24,29.23,29.23,0,0,1,8-.8,22.41,22.41,0,0,1,3.54.43,30.46,30.46,0,0,1,3.24.8,71.8,71.8,0,0,1,8,3.1l1.33.59c.61.27,1.13.5,1.57.68-.22-.31-.49-.67-.8-1.08h0a39.63,39.63,0,0,0-2.63-3.08,35.48,35.48,0,0,0-4.41-4,26.15,26.15,0,0,0-14.27-5.4.55.55,0,0,1-.49-.55.52.52,0,0,1,.51-.52c.94-.06,1.77-.07,2.51-.06a35.16,35.16,0,0,1,7.44.88,30.11,30.11,0,0,1,5.55,1.84,9.78,9.78,0,0,1,1.1.52l1,.48,0,0,.73.42.9.53,1.2.79c-.24-.47-.55-1-.92-1.61a21.06,21.06,0,0,0-3.11-3.72A26.19,26.19,0,0,0,190.6,51,31.52,31.52,0,0,0,182,48a36.11,36.11,0,0,0-5.38-.67,47.69,47.69,0,0,0-5.87.15,57,57,0,0,0-12.7,2.82,109.33,109.33,0,0,0-13.32,5.61q-2.74,1.34-5.28,2.6c-2.47,1.23-4.8,2.39-7,3.43a91.63,91.63,0,0,1-10.49,4.29,74.17,74.17,0,0,1-9.32,2.32l-2.13.37-.6.09a12,12,0,0,1-1.29.16c-1.09.1-2.31.15-3.72.15a91.06,91.06,0,0,1-11-.64c-.41,0-.79-.1-1.12-.16l-.5-.08Z" transform="translate(-2.73 -5.59)"/><path class="cls-15" d="M192.65,82.16l-.06-.21c0-.13-.11-.34-.21-.59a7.54,7.54,0,0,0-1.2-2,9,9,0,0,0-2.82-2.23,14.08,14.08,0,0,0-4.7-1.28,39.7,39.7,0,0,0-6.67-.18,24.39,24.39,0,0,0-7.36,1.51A74.18,74.18,0,0,0,161,81.54,91.86,91.86,0,0,1,149.32,87a66.68,66.68,0,0,1-12.76,3.47,50,50,0,0,1-11.69.56,39,39,0,0,1-17.12-5.23A32.71,32.71,0,0,1,105,83.91c-.81-.65-1.57-1.22-2.2-1.84a22.69,22.69,0,0,1-1.7-1.72,16.74,16.74,0,0,1-1.26-1.5c-.34-.46-.65-.86-.88-1.22l-.57-.92L97.94,76l.69.31c.46.2,1.12.55,2.06.94A47.66,47.66,0,0,0,109.14,80a50.91,50.91,0,0,0,14.77,1.12,75.23,75.23,0,0,0,21.31-5.09c4.13-1.56,7.9-3.23,11.5-4.84a45.55,45.55,0,0,1,11.61-3.86,28.22,28.22,0,0,1,10.53.47,34,34,0,0,1,4.07,1.22,24.66,24.66,0,0,1,3.52,1.58,14.17,14.17,0,0,1,4.91,4.23A9.47,9.47,0,0,1,193,79a6.58,6.58,0,0,1-.1,2.45,5.14,5.14,0,0,1-.17.56Z" transform="translate(-2.73 -5.59)"/><path class="cls-16" d="M101.7,83.76s.73.23,2.11.74,3.49,1.19,6.27,2a77.32,77.32,0,0,0,10.46,2,61.81,61.81,0,0,0,28.87-3.24,77.75,77.75,0,0,0,9.75-4.32c2.55-1.35,4.4-2.53,5.68-3.29s1.9-1.19,1.9-1.19-.32.56-1.11,1.69a32.06,32.06,0,0,1-4.27,4.78A41.25,41.25,0,0,1,152,89.45a46.66,46.66,0,0,1-33.13,3.72,41.51,41.51,0,0,1-10.54-4.3,32.13,32.13,0,0,1-5.22-3.71C102.13,84.24,101.7,83.76,101.7,83.76Z" transform="translate(-2.73 -5.59)"/><path class="cls-17" d="M109.36,98.06l-.14.14a4.49,4.49,0,0,1-.47.36,5.31,5.31,0,0,1-2.3.76,8.69,8.69,0,0,1-4-.58,11.67,11.67,0,0,1-2.21-1.15,16.39,16.39,0,0,1-2-1.61,34.38,34.38,0,0,1-2.87-3A17.57,17.57,0,0,0,93.61,91a5,5,0,0,0-1.49-1,5,5,0,0,0-.53-.17l-.19-.06a1.73,1.73,0,0,1,.08-.16,2.17,2.17,0,0,1,.36-.43,3.72,3.72,0,0,1,2.23-.95,7.57,7.57,0,0,1,4.05.79A16.67,16.67,0,0,1,102.27,92c.65.6,1.2,1.14,1.68,1.61l1.27,1.25c.78.75,1.44,1.33,2,1.81a14.1,14.1,0,0,0,1.5,1Z" transform="translate(-2.73 -5.59)"/><path class="cls-18" d="M116.73,94.89a7.86,7.86,0,0,1-.82.33,13.26,13.26,0,0,1-2.43.56,13,13,0,0,1-4.16-.13,11.63,11.63,0,0,1-5.63-2.81,13.44,13.44,0,0,1-2.09-2.53c-.5-.78-.88-1.47-1.2-2.09a30.82,30.82,0,0,0-1.6-2.86,9.23,9.23,0,0,0-1.38-1.63l-.48-.39-.18-.14.17-.11a2.35,2.35,0,0,1,.57-.27,4.77,4.77,0,0,1,2.62,0A9,9,0,0,1,104,84.91c1.31,1.13,2.47,2.6,3.61,3.65a21.16,21.16,0,0,0,3.58,2.55c1.17.71,2.23,1.32,3.07,1.86a18.77,18.77,0,0,1,1.85,1.36A5.86,5.86,0,0,1,116.73,94.89Z" transform="translate(-2.73 -5.59)"/><path class="cls-19" d="M111.8,96.42a14.16,14.16,0,0,1-2.58-.24,12.32,12.32,0,0,1-5.89-2.94,14.13,14.13,0,0,1-2.17-2.63,23.75,23.75,0,0,1-1.23-2.13,28.35,28.35,0,0,0-1.58-2.82,8.27,8.27,0,0,0-1.29-1.53c-.14-.12-.33-.28-.44-.36l-.72-.57.53-.43.23-.14a2.6,2.6,0,0,1,.67-.31,5.17,5.17,0,0,1,2.91-.08,9,9,0,0,1,3.3,1.59L104,84l.37.12-.23-.19a22.26,22.26,0,0,1-1.75-1.48,23.26,23.26,0,0,1-1.73-1.75,15.6,15.6,0,0,1-1.28-1.54l-.22-.29c-.27-.35-.49-.65-.68-1L97.9,77l-1.24-2.17,2.19,1,.55.26c.39.19.88.42,1.49.67a47,47,0,0,0,8.37,2.8,50.47,50.47,0,0,0,14.62,1.1A74.4,74.4,0,0,0,145,75.56c4.27-1.6,8.26-3.38,11.47-4.82a46.1,46.1,0,0,1,11.75-3.9,28.53,28.53,0,0,1,10.73.48,34.21,34.21,0,0,1,4.14,1.23,26.43,26.43,0,0,1,3.59,1.62,14.61,14.61,0,0,1,5.09,4.4,10.32,10.32,0,0,1,1.73,4.33h0a7.22,7.22,0,0,1-.12,2.65,4.5,4.5,0,0,1-.16.53l-.1.26-.54,1.46-.54-1.69a4,4,0,0,0-.19-.55,6.82,6.82,0,0,0-1.11-1.87,8.28,8.28,0,0,0-2.65-2.1,13.51,13.51,0,0,0-4.53-1.23,38.91,38.91,0,0,0-6.57-.17,23.81,23.81,0,0,0-7.2,1.47,42.42,42.42,0,0,0-5,2.39,33.63,33.63,0,0,1-3.09,3.26,41.7,41.7,0,0,1-9.44,6.61,47.2,47.2,0,0,1-33.51,3.77A43.21,43.21,0,0,1,114,92.17l.55.35a18.56,18.56,0,0,1,1.92,1.41c.41.36.61.59.64.61l.44.52-.61.31a5.92,5.92,0,0,1-.88.35,13,13,0,0,1-2.54.59A14.82,14.82,0,0,1,111.8,96.42Zm-14-13.11h0a9,9,0,0,1,1.47,1.75A30.34,30.34,0,0,1,100.88,88c.32.61.68,1.28,1.17,2a12.75,12.75,0,0,0,2,2.43,11.12,11.12,0,0,0,5.37,2.68,12.68,12.68,0,0,0,4,.12,12.31,12.31,0,0,0,2.33-.54h0A17,17,0,0,0,114,93.42c-.57-.37-1.26-.79-2-1.22l-1-.63A21.24,21.24,0,0,1,107.28,89l-.23-.22-.12-.12-3.47-3.42,4.13,2.58c.34.21.68.42,1,.63a40.71,40.71,0,0,0,10.41,4.24A46,46,0,0,0,151.79,89,41.14,41.14,0,0,0,161,82.53a33.08,33.08,0,0,0,3.06-3.24l.07-.08.09,0a42.93,42.93,0,0,1,5.22-2.5A24.51,24.51,0,0,1,177,75.12a41.17,41.17,0,0,1,6.76.17,14.57,14.57,0,0,1,4.89,1.35,9.17,9.17,0,0,1,3,2.36,8,8,0,0,1,.92,1.36,6.59,6.59,0,0,0,0-1.32,8.91,8.91,0,0,0-1.55-3.86,13.55,13.55,0,0,0-4.72-4.07,24.27,24.27,0,0,0-3.44-1.55,33.31,33.31,0,0,0-4-1.19,27.46,27.46,0,0,0-10.33-.47,45.23,45.23,0,0,0-11.47,3.82c-3.22,1.44-7.23,3.23-11.54,4.85A75.55,75.55,0,0,1,124,81.69,51.94,51.94,0,0,1,109,80.56a48.36,48.36,0,0,1-8.55-2.85c-.46-.19-.86-.37-1.19-.53l.1.17q.25.38.63.87l.23.31A16.41,16.41,0,0,0,101.47,80a19.77,19.77,0,0,0,1.66,1.68c.49.48,1.07.94,1.67,1.42l.51.4.11.09c.81.57,1.65,1.17,2.6,1.72l.06,0,3.55,2.18-4-1.21c-1.14-.35-2.15-.68-3-1l-1-.34-.55-.2-.08,0-.06,0A8.2,8.2,0,0,0,100,83.29,4.25,4.25,0,0,0,97.75,83.31Z" transform="translate(-2.73 -5.59)"/><path class="cls-20" d="M105.69,99.9a9.71,9.71,0,0,1-3.39-.66A12.43,12.43,0,0,1,100,98a16.21,16.21,0,0,1-2.11-1.67,31.3,31.3,0,0,1-2.72-2.87L95,93.28a17.41,17.41,0,0,0-1.72-1.87,4.31,4.31,0,0,0-1.33-.88,4.25,4.25,0,0,0-.45-.15l-.8-.23.24-.56a1.32,1.32,0,0,1,.12-.22,2.34,2.34,0,0,1,.44-.55A4.19,4.19,0,0,1,94,87.73a8.15,8.15,0,0,1,4.35.83,17.25,17.25,0,0,1,4.27,3c.6.55,1.11,1,1.56,1.49l1.41,1.39c.75.73,1.41,1.3,2,1.77h0a12.59,12.59,0,0,0,1.45,1l.62.37.58.37-.69.66A3.63,3.63,0,0,1,109,99a5.7,5.7,0,0,1-2.52.83A7,7,0,0,1,105.69,99.9ZM92.29,89.52l0,0A5.32,5.32,0,0,1,94,90.61a18.4,18.4,0,0,1,1.82,2l.18.21a31.06,31.06,0,0,0,2.63,2.79,16.51,16.51,0,0,0,2,1.55,10.27,10.27,0,0,0,2.1,1.09,8,8,0,0,0,3.71.56,4.71,4.71,0,0,0,2-.67,14.3,14.3,0,0,1-1.52-1.06c-.6-.48-1.27-1.08-2.06-1.83l-1.42-1.4c-.44-.43-.94-.92-1.52-1.46a16.34,16.34,0,0,0-4-2.84,7.07,7.07,0,0,0-3.77-.74A3.28,3.28,0,0,0,92.29,89.52Z" transform="translate(-2.73 -5.59)"/><path class="cls-21" d="M2.73,113.11s.26-.08.81-.19A21.2,21.2,0,0,1,6,112.63c2.17-.17,5.37-.15,9.3-.24a58.24,58.24,0,0,0,13.44-1.66c1.2-.32,2.41-.72,3.63-1.17A39.55,39.55,0,0,0,36,107.89a39.52,39.52,0,0,0,3.69-2.24c.32-.2.61-.45.93-.67s.61-.44,1-.72l2.24-1.73c1.59-1.22,3.32-2.52,5.23-3.73,1-.6,2-1.18,3-1.7.54-.26,1-.51,1.66-.76a17.65,17.65,0,0,1,1.74-.66,24.93,24.93,0,0,1,13.14-.76,23,23,0,0,1,9.8,4.61,21.1,21.1,0,0,1,5.38,6.54,19.77,19.77,0,0,1,2,5.93,16.37,16.37,0,0,1,.18,4.3,10.32,10.32,0,0,1-.2,1.46,8.68,8.68,0,0,1-.24,1c-.15.53-.24.79-.24.79l-.41-.62c-.25-.41-.65-1-1.19-1.78a24.69,24.69,0,0,0-5.49-5.63A19.12,19.12,0,0,0,73.58,109a16.36,16.36,0,0,0-5.83-1,16,16,0,0,0-6.53,1.37l-.77.38c-.26.15-.47.25-.77.44-.59.35-1.2.75-1.85,1.2-1.31.92-2.78,2.08-4.5,3.41-.87.67-1.76,1.35-2.71,2-.46.33-1,.69-1.52,1s-1,.67-1.56,1a36,36,0,0,1-6.38,3,34.65,34.65,0,0,1-12.08,2,36.19,36.19,0,0,1-9.57-1.41,40.69,40.69,0,0,1-6.83-2.69A48.11,48.11,0,0,1,5,114.88Z" transform="translate(-2.73 -5.59)"/><path class="cls-22" d="M30.16,124.32h-.53a36.4,36.4,0,0,1-9.7-1.43A40.55,40.55,0,0,1,13,120.15a48.41,48.41,0,0,1-7.44-4.7l-.28-.22L3,113.46a.52.52,0,0,1-.2-.52.53.53,0,0,1,.37-.41,7.72,7.72,0,0,1,.86-.21,19.64,19.64,0,0,1,2.53-.3c1.44-.11,3.36-.14,5.59-.17l3.73-.07a57.39,57.39,0,0,0,13.31-1.64c1.1-.29,2.27-.67,3.59-1.16a37.62,37.62,0,0,0,3.6-1.64A38.15,38.15,0,0,0,40,105.13c.19-.12.36-.25.54-.39l.38-.27.28-.21c.21-.15.43-.3.67-.5L44.08,102c1.52-1.17,3.3-2.52,5.28-3.77,1.06-.66,2.06-1.23,3.06-1.73.49-.24,1-.51,1.69-.77s1.2-.49,1.78-.68a25.58,25.58,0,0,1,13.41-.77,23.59,23.59,0,0,1,10,4.72,21.77,21.77,0,0,1,5.52,6.7,20.46,20.46,0,0,1,2.06,6.1,16.84,16.84,0,0,1,.19,4.44,12,12,0,0,1-.21,1.51,9.12,9.12,0,0,1-.25,1.07c-.16.53-.25.8-.26.81a.53.53,0,0,1-.95.12l-.4-.62c-.27-.43-.67-1-1.19-1.76a23.83,23.83,0,0,0-5.36-5.51A18.34,18.34,0,0,0,74,109.44a16,16,0,0,0-5.65-1A15.47,15.47,0,0,0,62,109.8l-.73.36-.35.2-.4.23c-.58.35-1.17.73-1.82,1.19-1.09.76-2.28,1.68-3.65,2.75l-.83.64c-.73.56-1.7,1.3-2.73,2-.34.25-.74.51-1.12.76l-.41.28c-.54.37-1.07.69-1.6,1a35.63,35.63,0,0,1-6.45,3,33.73,33.73,0,0,1-6.38,1.62A33.53,33.53,0,0,1,30.16,124.32Zm-25.63-11,1.67,1.28a47.33,47.33,0,0,0,7.29,4.61,39.63,39.63,0,0,0,6.74,2.65,35.39,35.39,0,0,0,9.41,1.39,33.83,33.83,0,0,0,11.9-2,35.17,35.17,0,0,0,6.29-2.94c.51-.29,1-.6,1.53-1l.42-.28,1.09-.74c1-.73,2-1.46,2.69-2l.83-.64c1.39-1.07,2.59-2,3.69-2.78.67-.47,1.29-.87,1.88-1.23.16-.1.31-.18.45-.25l.32-.18.05,0,.77-.38a16.68,16.68,0,0,1,6.76-1.43,17.38,17.38,0,0,1,6,1,19.47,19.47,0,0,1,4.79,2.6,25.39,25.39,0,0,1,5.61,5.75c.39.56.73,1.06,1,1.45,0-.21.1-.42.13-.63a10.87,10.87,0,0,0,.2-1.41,16.11,16.11,0,0,0-.17-4.18,19.45,19.45,0,0,0-2-5.76,20.58,20.58,0,0,0-5.25-6.38,22.44,22.44,0,0,0-9.57-4.5,24.4,24.4,0,0,0-12.85.74c-.56.18-1.11.39-1.71.65s-1.15.51-1.63.74c-1,.49-1.93,1-3,1.68-1.94,1.22-3.7,2.55-5.19,3.7l-2.24,1.73c-.25.2-.48.36-.7.53l-.28.2-.36.26a7.3,7.3,0,0,1-.61.43,38,38,0,0,1-3.71,2.25,39.88,39.88,0,0,1-3.71,1.7c-1.37.5-2.57.89-3.7,1.2a58.78,58.78,0,0,1-13.56,1.67l-3.75.07c-2.2,0-4.11.06-5.52.17C5.71,113.15,5,113.24,4.53,113.31Z" transform="translate(-2.73 -5.59)"/><path class="cls-23" d="M31.66,98.22l.58-.13c.39-.07,1-.21,1.68-.42a26.24,26.24,0,0,0,5.87-2.61c1.22-.69,2.54-1.55,4-2.55s3.1-2.2,5.07-3.46a35.3,35.3,0,0,1,7.29-3.65A24.31,24.31,0,0,1,61,84.24a24.76,24.76,0,0,1,5.32-.15,25.51,25.51,0,0,1,16.85,8,21.92,21.92,0,0,1,4,6.22,19.92,19.92,0,0,1,1.46,5.68,17.23,17.23,0,0,1-.8,7.43c-.14.38-.27.72-.38,1l-.33.69-.29.53-.16-.51c-.1-.34-.24-.85-.46-1.52A30,30,0,0,0,83.78,106a22.7,22.7,0,0,0-6.12-7.11,22.24,22.24,0,0,0-2.38-1.56A26.71,26.71,0,0,0,72.44,96a29.16,29.16,0,0,0-3.27-1,26.11,26.11,0,0,0-3.64-.56,20.72,20.72,0,0,0-3.62,0,19.55,19.55,0,0,0-3.32.58,61.41,61.41,0,0,0-6.47,2.17C50,98,48,98.72,46,99.26a27.38,27.38,0,0,1-5.39.95,15.77,15.77,0,0,1-7-.93,10,10,0,0,1-1.5-.76C31.8,98.33,31.66,98.22,31.66,98.22Z" transform="translate(-2.73 -5.59)"/><path class="cls-24" d="M86.88,114.16h0a.55.55,0,0,1-.47-.37l-.24-.8c-.1-.32-.21-.73-.38-1.23l0-.06a29.28,29.28,0,0,0-2.32-5.42,22,22,0,0,0-6-7,20.18,20.18,0,0,0-2.24-1.47l-.09,0a25.28,25.28,0,0,0-2.76-1.3,28.3,28.3,0,0,0-3.2-1A25.21,25.21,0,0,0,65.58,95a19,19,0,0,0-3.53,0,19.6,19.6,0,0,0-3.24.56,55.57,55.57,0,0,0-6.08,2l-.33.13c-2.2.83-4.19,1.56-6.18,2.1a28.58,28.58,0,0,1-5.49,1,16.07,16.07,0,0,1-7.24-1A9.34,9.34,0,0,1,31.9,99c-.32-.2-.47-.31-.47-.31a.56.56,0,0,1-.21-.55.57.57,0,0,1,.41-.41l.59-.13a16.72,16.72,0,0,0,1.64-.41,26,26,0,0,0,5.76-2.56c1.1-.63,2.35-1.44,4-2.53l1.14-.8c1.16-.81,2.47-1.72,3.95-2.67a36.21,36.21,0,0,1,7.39-3.71,24.25,24.25,0,0,1,5-1.18,25,25,0,0,1,5.43-.15,26.2,26.2,0,0,1,17.2,8.12,22.4,22.4,0,0,1,4.07,6.37,20.5,20.5,0,0,1,1.49,5.84,17.92,17.92,0,0,1-.82,7.66l-.39,1s0,0,0,0l-.33.69-.29.55A.56.56,0,0,1,86.88,114.16ZM64,93.83c.56,0,1.13,0,1.68.07a27.26,27.26,0,0,1,3.72.57,30.92,30.92,0,0,1,3.34,1,28.77,28.77,0,0,1,2.9,1.36l.12.07a21.18,21.18,0,0,1,2.35,1.54,23.27,23.27,0,0,1,6.25,7.27,30,30,0,0,1,2.4,5.61l0,.06.24.77h0c.11-.27.23-.59.37-1a16.86,16.86,0,0,0,.77-7.2,19.36,19.36,0,0,0-1.42-5.52,21.64,21.64,0,0,0-3.87-6.07,25.19,25.19,0,0,0-16.5-7.78,25.6,25.6,0,0,0-5.21.15A23.63,23.63,0,0,0,56.4,86a34.61,34.61,0,0,0-7.17,3.6c-1.46.93-2.76,1.84-3.9,2.64l-1.15.8c-1.62,1.11-2.9,1.93-4,2.58a26.63,26.63,0,0,1-6,2.66l-1,.27c.2.1.44.21.72.32a15.14,15.14,0,0,0,6.76.9,27.12,27.12,0,0,0,5.29-.93c2-.53,3.91-1.25,6.08-2.08l.34-.12a56.88,56.88,0,0,1,6.19-2.07,20.49,20.49,0,0,1,3.4-.59A19.71,19.71,0,0,1,64,93.83Z" transform="translate(-2.73 -5.59)"/><path class="cls-25" d="M26.64,125.73l1.87-.62c1.22-.41,3-1,5.12-2A48.15,48.15,0,0,0,41,119c2.86-1.86,6.12-4.37,10.67-7a39.72,39.72,0,0,1,7-3.13,25.74,25.74,0,0,1,6.92-1.27,18.48,18.48,0,0,1,6.1.77,16.52,16.52,0,0,1,4.48,2.14,11.57,11.57,0,0,1,4.16,4.84c.13.32.24.6.32.84s.12.46.16.63a5,5,0,0,1,.1.49l-.41-.21c-.25-.14-.64-.35-1.16-.59a16,16,0,0,0-4.63-1.35,19.27,19.27,0,0,0-7.52.49,46,46,0,0,0-10.72,4.81c-2.17,1.22-4.29,2.46-6.36,3.52a44.83,44.83,0,0,1-6.1,2.64A27.37,27.37,0,0,1,38.39,128a21.41,21.41,0,0,1-4.57.06,17.37,17.37,0,0,1-5.57-1.4A8.88,8.88,0,0,1,26.64,125.73Z" transform="translate(-2.73 -5.59)"/><path class="cls-26" d="M35.85,128.68c-.68,0-1.34,0-2-.09a18.26,18.26,0,0,1-5.74-1.44,9.45,9.45,0,0,1-1.71-1,.53.53,0,0,1,.15-.93l1.88-.63c.91-.31,2.81-.94,5.07-2a47.22,47.22,0,0,0,7.29-4.1c.92-.6,1.88-1.26,2.91-2,2.19-1.52,4.68-3.24,7.79-5a39,39,0,0,1,7.06-3.17,25.4,25.4,0,0,1,7.06-1.3,19,19,0,0,1,6.29.79,17,17,0,0,1,4.62,2.21,12.22,12.22,0,0,1,4.35,5.07c.14.34.24.63.33.88s.12.43.15.58l0,.09c.08.37.1.54.1.54a.55.55,0,0,1-.21.52.54.54,0,0,1-.56,0l-.41-.21c-.22-.12-.62-.34-1.14-.58a15.8,15.8,0,0,0-4.48-1.31,18.65,18.65,0,0,0-7.31.48A44.33,44.33,0,0,0,56.79,121l-1.39.78c-1.72,1-3.35,1.91-5,2.75a45.48,45.48,0,0,1-6.17,2.68,28,28,0,0,1-5.69,1.32A22.43,22.43,0,0,1,35.85,128.68ZM28,125.91l.54.26a17.2,17.2,0,0,0,5.4,1.35,20.87,20.87,0,0,0,4.46-.06,27.51,27.51,0,0,0,5.47-1.28,44.45,44.45,0,0,0,6-2.61c1.63-.84,3.25-1.76,5-2.73l1.39-.79a45.78,45.78,0,0,1,10.85-4.86,19.83,19.83,0,0,1,7.72-.5,16.72,16.72,0,0,1,4.79,1.4l.55.26c-.07-.2-.17-.45-.28-.74a11.17,11.17,0,0,0-4-4.6A15.88,15.88,0,0,0,71.59,109a17.89,17.89,0,0,0-5.93-.75,24.42,24.42,0,0,0-6.77,1.25A38.19,38.19,0,0,0,52,112.53c-3.06,1.76-5.53,3.47-7.71,5-1,.71-2,1.39-2.93,2a50.07,50.07,0,0,1-7.45,4.18c-2,.9-3.75,1.51-5.17,2Z" transform="translate(-2.73 -5.59)"/><path class="cls-27" d="M45.62,129.57s.35-.32,1-.84,1.71-1.28,3-2.2L61,118.78a23.2,23.2,0,0,1,8.54-3.9,12.26,12.26,0,0,1,4.17-.08A8.51,8.51,0,0,1,77,116a6,6,0,0,1,2.79,3.51,3.44,3.44,0,0,1,.09,1.07c0,.23,0,.34,0,.34l-.25-.18a6,6,0,0,0-.73-.44,5.82,5.82,0,0,0-2.84-.53,7.73,7.73,0,0,0-2,.33,15.4,15.4,0,0,0-2.32,1,28.73,28.73,0,0,0-2.8,1.67l-3.67,2.5a35.52,35.52,0,0,1-4.35,2.56,26.33,26.33,0,0,1-4.06,1.58,22.2,22.2,0,0,1-6.37,1,15.33,15.33,0,0,1-3.7-.4A7.44,7.44,0,0,1,45.62,129.57Z" transform="translate(-2.73 -5.59)"/><path class="cls-28" d="M50.54,130.92a15.81,15.81,0,0,1-3.78-.42,8.26,8.26,0,0,1-1.27-.4.55.55,0,0,1-.31-.41.56.56,0,0,1,.17-.48s.37-.34,1.07-.87c.54-.41,1.51-1.13,3-2.2l11.28-7.76a23.07,23.07,0,0,1,8.75-4,12.53,12.53,0,0,1,4.35-.08,9.13,9.13,0,0,1,3.52,1.27,6.43,6.43,0,0,1,3,3.85,3.74,3.74,0,0,1,.11,1.23,3,3,0,0,1,0,.4.56.56,0,0,1-.33.39.52.52,0,0,1-.51-.06l-.25-.18a4.33,4.33,0,0,0-.66-.39,5.15,5.15,0,0,0-2.58-.49,7.42,7.42,0,0,0-1.8.31,14.93,14.93,0,0,0-2.24.92,28,28,0,0,0-2.75,1.64l-3.66,2.5a36.69,36.69,0,0,1-4.42,2.59,27,27,0,0,1-4.15,1.62,23,23,0,0,1-6.51,1Zm-3.74-1.51.22.05a14.88,14.88,0,0,0,3.56.39,22,22,0,0,0,6.22-1,26.14,26.14,0,0,0,4-1.55,36,36,0,0,0,4.29-2.52l3.66-2.5a30.81,30.81,0,0,1,2.86-1.71,17.14,17.14,0,0,1,2.4-1,8.21,8.21,0,0,1,2.09-.36,6.51,6.51,0,0,1,3.11.6l.22.11-.06-.3a5.39,5.39,0,0,0-2.55-3.18,8,8,0,0,0-3.11-1.12,11.49,11.49,0,0,0-4,.07,22.36,22.36,0,0,0-8.34,3.81L50.08,127c-1.19.82-2.25,1.6-3,2.17Z" transform="translate(-2.73 -5.59)"/><path class="cls-29" d="M62.71,131.54s.23-.25.57-.67a11.47,11.47,0,0,0,1.14-1.79c.41-.76.76-1.61,1.36-2.68A17.2,17.2,0,0,1,67,124.61a13.71,13.71,0,0,1,2-2.08,12.85,12.85,0,0,1,2.45-1.65,13.07,13.07,0,0,1,2.53-1,8.12,8.12,0,0,1,2.81-.27,5.18,5.18,0,0,1,2.41.81A3.51,3.51,0,0,1,80.85,123a2,2,0,0,1-.1.74,1.35,1.35,0,0,1-.09.22l-.21-.08a2.45,2.45,0,0,0-.56-.13,2.54,2.54,0,0,0-1.62.41,2,2,0,0,0-.35.3c-.09.11-.14.22-.26.35s-.39.52-.69.86-.74.77-1.28,1.26-1.1,1-1.72,1.5-1.19,1-1.84,1.5a19.4,19.4,0,0,1-2,1.39A8.9,8.9,0,0,1,66,132.64a5,5,0,0,1-2.56-.56A2.67,2.67,0,0,1,62.71,131.54Z" transform="translate(-2.73 -5.59)"/><path class="cls-30" d="M65.87,133.22a5.26,5.26,0,0,1-2.64-.64,2.83,2.83,0,0,1-.85-.67l-.28-.36.31-.33s.22-.24.54-.64A11.23,11.23,0,0,0,64,128.87c.17-.31.33-.64.5-1,.24-.5.51-1.06.87-1.7a16.12,16.12,0,0,1,1.22-1.85,13.82,13.82,0,0,1,2.09-2.17,13.8,13.8,0,0,1,5.18-2.75,8.54,8.54,0,0,1,3-.29,5.73,5.73,0,0,1,2.68.9,4.07,4.07,0,0,1,1.9,3,2.47,2.47,0,0,1-.13.93,1.63,1.63,0,0,1-.13.31l-.23.4-.63-.23a1.67,1.67,0,0,0-.43-.1,1.94,1.94,0,0,0-1.27.32,1.84,1.84,0,0,0-.25.21l-.07.1a1.87,1.87,0,0,1-.17.23l-.11.15c-.16.21-.35.44-.6.73a18.34,18.34,0,0,1-1.32,1.3c-.5.46-1.07.95-1.74,1.51s-1.21,1-1.85,1.51a17.15,17.15,0,0,1-2.11,1.43,9.19,9.19,0,0,1-4.37,1.36Zm-2.31-1.69.21.12a4.25,4.25,0,0,0,2.28.49,8.42,8.42,0,0,0,3.86-1.21,18.69,18.69,0,0,0,2-1.36c.63-.48,1.17-.93,1.82-1.48s1.21-1,1.71-1.49a16.17,16.17,0,0,0,1.24-1.22c.23-.25.39-.46.55-.67l.15-.19a1,1,0,0,0,.09-.13,1.63,1.63,0,0,1,.17-.22,2.41,2.41,0,0,1,.44-.38,3.08,3.08,0,0,1,2-.5l.35.06a2.25,2.25,0,0,0,0-.26A3,3,0,0,0,79,120.9a4.73,4.73,0,0,0-2.17-.72,7.27,7.27,0,0,0-2.61.26,12.26,12.26,0,0,0-2.43,1A12.86,12.86,0,0,0,67.49,125a14.49,14.49,0,0,0-1.15,1.73c-.34.61-.6,1.16-.84,1.64s-.34.7-.52,1a11.36,11.36,0,0,1-1.19,1.87Z" transform="translate(-2.73 -5.59)"/><path class="cls-3" d="M174.88,189.28l-.22-.92c0-.13-3-12.41-7.71-19.66a136.35,136.35,0,0,0-9.7-13l-.43-.49,8.34-8.88.51.41a84.06,84.06,0,0,1,11.58,12c6,7.48,11.31,14.59,11.37,14.66l.18.25-.06.31a18.39,18.39,0,0,1-4.81,8.29,38.08,38.08,0,0,1-8.23,6.6Zm-16.14-34a139.74,139.74,0,0,1,9.4,12.64c4.17,6.35,6.88,16.09,7.67,19.17a38.48,38.48,0,0,0,7.08-5.84,18.38,18.38,0,0,0,4.38-7.29c-1-1.36-5.77-7.7-11.13-14.35a86,86,0,0,0-10.85-11.3Z" transform="translate(-2.73 -5.59)"/><path class="cls-31" d="M234.56,67s-4.85-1.09-14.64-5.62a75.25,75.25,0,0,1-12.22-7,29.49,29.49,0,0,0-16.86-1.54c-6.3,1.25-11.12,4.27-16.13,7.87-3.06,1.8-9,6.21-17.49,14.23A131.29,131.29,0,0,0,148,84.33a21.83,21.83,0,0,1-18.61,7.3c-1.7-.16-3.43-.24-5.17-.24-26.57,0-48.1,18.89-48.1,42.2a37.76,37.76,0,0,0,4.5,17.82,121.72,121.72,0,0,0-9.5,7.75c-11.23,10.13-15.25,20-15.25,20S52,190.52,68,202.23s24.28,2.32,24.28,2.32,3.54-12.44,7.33-23.3a47.26,47.26,0,0,1,4.55-9.33,53.53,53.53,0,0,0,20.12,3.87,54.38,54.38,0,0,0,10.93-1.11,58.3,58.3,0,0,1,1.85,5.84,140.05,140.05,0,0,1,3.54,23.42s6.34,10.25,23.43,3.42,14.76-17.08,14.76-17.08-.24-9.76-7.69-22.58a72.52,72.52,0,0,0-7.16-10.24,38.57,38.57,0,0,0,8.43-23.87A37.4,37.4,0,0,0,170.5,122l0,0a13.1,13.1,0,0,1,4.16-9.54c4-3.81,7.1-4.2,7.1-4.2a27.4,27.4,0,0,0,22.5,5,28.3,28.3,0,0,0,10.46-4.37,49.15,49.15,0,0,1,5.24-1.76,21.3,21.3,0,0,1,4-.66c.74.13,1.5.23,2.27.29A20.49,20.49,0,0,0,234.56,67Z" transform="translate(-2.73 -5.59)"/><path class="cls-32" d="M55.65,179.69a38.7,38.7,0,0,1,24.51,6.81c16.8,11.88,11.41,18.16,11.41,18.16s-7.82,9.55-23.59-1.93S55.65,179.69,55.65,179.69Z" transform="translate(-2.73 -5.59)"/><path class="cls-32" d="M140.58,203.93c2.12-5.25,9.44-11.29,22.07-14.77,13.92-3.83,16.18,2.8,16.18,2.8s.84,11-19.27,16.79C146,212.64,140.58,203.93,140.58,203.93Z" transform="translate(-2.73 -5.59)"/><path class="cls-3" d="M153.13,210.41a17.94,17.94,0,0,1-7.55-1.55,13.5,13.5,0,0,1-5.62-4.54l-.09-.16V204a140.86,140.86,0,0,0-3.52-23.28c-.45-1.73-1-3.47-1.62-5.2a55.18,55.18,0,0,1-10.47,1,54,54,0,0,1-19.83-3.7,46.8,46.8,0,0,0-4.17,8.68c-3.73,10.72-7.27,23.14-7.31,23.27l0,.15-.11.12a12.6,12.6,0,0,1-6.53,3.46c-3.86.84-10.24.54-18.71-5.67-16.22-11.89-12.5-23.39-12.33-23.87v0c.17-.41,4.22-10.15,15.44-20.27,2.9-2.62,6-5.12,9.06-7.43a38.26,38.26,0,0,1-4.3-17.61c0-23.67,21.9-42.92,48.82-42.92,1.74,0,3.51.08,5.24.25a21.22,21.22,0,0,0,18-7.06c2.52-2.9,5.63-6.11,9.24-9.51,10-9.48,15.63-13.16,17.59-14.31,4.6-3.3,9.66-6.64,16.38-8A30.26,30.26,0,0,1,208,53.65l.08,0,.08.06a74.94,74.94,0,0,0,12.09,7c9.59,4.44,14.45,5.56,14.5,5.57l.08,0a21.21,21.21,0,0,1-8.62,41.23,22.48,22.48,0,0,1-2.26-.28,21.34,21.34,0,0,0-3.74.63,49.43,49.43,0,0,0-5.09,1.71A28.85,28.85,0,0,1,204.44,114a28,28,0,0,1-22.82-4.93,15,15,0,0,0-6.43,4,12.48,12.48,0,0,0-3.94,9v0a38.13,38.13,0,0,1,1.81,11.56,39.11,39.11,0,0,1-8.24,23.85,73.43,73.43,0,0,1,6.87,9.91c7.21,12.41,7.75,21.88,7.78,22.84.2,1,1.68,11.08-15.21,17.83A29.92,29.92,0,0,1,153.13,210.41Zm-11.86-6.7c.85,1.22,7.08,9.14,22.46,3,16.33-6.53,14.35-16.16,14.33-16.26l0-.14c0-.09-.34-9.75-7.59-22.23a71.48,71.48,0,0,0-7.09-10.14l-.37-.45.35-.45a37.79,37.79,0,0,0,8.29-23.43,36.69,36.69,0,0,0-1.81-11.34l-.76-2.36.83.69a14,14,0,0,1,4.32-8.57c4.11-3.94,7.37-4.39,7.5-4.4l.3,0,.23.18a26.55,26.55,0,0,0,21.92,4.86,27.33,27.33,0,0,0,10.19-4.26l.15-.07a49.8,49.8,0,0,1,5.32-1.79,22.42,22.42,0,0,1,4.09-.69h.18a21.59,21.59,0,0,0,2.19.29,19.78,19.78,0,0,0,8.09-38.44c-.52-.12-5.36-1.31-14.75-5.66a78.19,78.19,0,0,1-12.27-7.06A28.72,28.72,0,0,0,191,53.47c-5.83,1.15-10.38,3.82-15.85,7.75l0,0c-1.48.86-7.1,4.44-17.37,14.13a129.71,129.71,0,0,0-9.14,9.41,22.63,22.63,0,0,1-19.22,7.54c-1.68-.16-3.4-.24-5.1-.24-26.13,0-47.39,18.61-47.39,41.49a36.93,36.93,0,0,0,4.42,17.49l.29.54-.5.37c-3.24,2.38-6.42,5-9.44,7.7-10.73,9.68-14.84,19.21-15.06,19.73a13.58,13.58,0,0,0,.09,6.82c.92,3.79,3.71,9.53,11.74,15.42,14.34,10.51,22.24,3.5,23.22,2.52.44-1.53,3.77-13.1,7.28-23.17a48.38,48.38,0,0,1,4.62-9.47l.32-.51.56.23a52.68,52.68,0,0,0,19.85,3.81A54.56,54.56,0,0,0,135,174l.6-.12.21.57a61.81,61.81,0,0,1,1.87,5.9A141.23,141.23,0,0,1,141.27,203.71Z" transform="translate(-2.73 -5.59)"/><path class="cls-33" d="M210.55,75c0,.15-.65.51-.75.44a7,7,0,0,0-2.08-1.19,3.6,3.6,0,0,0-2.86.07,5.35,5.35,0,0,0-2.14,2.39,7.93,7.93,0,0,0-.7,2.42c0,.12-.71.36-.8.24a4.88,4.88,0,0,1-.91-3.07,6.2,6.2,0,0,1,.67-2.63,5.7,5.7,0,0,1,2.45-2.53,5.21,5.21,0,0,1,1.83-.52,4.58,4.58,0,0,1,1.64.17,4.94,4.94,0,0,1,2.26,1.34A4.83,4.83,0,0,1,210.55,75Z" transform="translate(-2.73 -5.59)"/><path class="cls-3" d="M241.22,81.34c0,.06-.38.24-.43.2a6.41,6.41,0,0,1-1.94-2.46,7.28,7.28,0,0,1-.62-1.85,4.09,4.09,0,0,1-.08-.8,1,1,0,0,1,.23-.62c.05,0,.42.08.44.12.07.23.26.29.61.69a7.54,7.54,0,0,1,1.06,1.68A6.24,6.24,0,0,1,241.22,81.34Z" transform="translate(-2.73 -5.59)"/><path class="cls-34" d="M155.78,105.29l.58-.6a.37.37,0,0,0,0-.52.37.37,0,0,0-.52,0l-.58.61-.41-.38a38.13,38.13,0,0,0-3.26-2.65.38.38,0,0,0-.52.09.37.37,0,0,0,.09.51,34.62,34.62,0,0,1,3.2,2.59l.39.37-.37.38a.37.37,0,0,0,0,.52.37.37,0,0,0,.52,0l.37-.39q1.71,1.62,3.42,3.51a.37.37,0,0,0,.27.12.35.35,0,0,0,.25-.1.35.35,0,0,0,0-.51C158.08,107.57,156.92,106.38,155.78,105.29Z" transform="translate(-2.73 -5.59)"/><path class="cls-34" d="M145,95.39l-1.35,1.92a.38.38,0,0,0,.09.51.44.44,0,0,0,.21.07.37.37,0,0,0,.3-.16l1.35-1.92a.38.38,0,0,0-.09-.51A.36.36,0,0,0,145,95.39Z" transform="translate(-2.73 -5.59)"/><path class="cls-34" d="M167.63,116.76a.37.37,0,0,0-.52,0l-.91.78-.42-.58.6-.58a.37.37,0,0,0,0-.52.37.37,0,0,0-.52,0l-.51.51c-.69-.93-1.51-2-2.45-3.19a.37.37,0,1,0-.57.46c1,1.2,1.8,2.31,2.49,3.24l-.91.9a.35.35,0,0,0,0,.51.36.36,0,0,0,.27.11.35.35,0,0,0,.25-.1l.83-.82.4.55-.87.74a.37.37,0,0,0,0,.52.39.39,0,0,0,.28.13.38.38,0,0,0,.24-.09l.81-.7c.52.75.81,1.19.82,1.2a.35.35,0,0,0,.3.17.37.37,0,0,0,.31-.56s-.32-.49-.87-1.29l1-.82A.38.38,0,0,0,167.63,116.76Z" transform="translate(-2.73 -5.59)"/><path class="cls-35" d="M80.87,151.27a30.54,30.54,0,0,0,2.68-1.74c1.39-1,3.89-2.42,3.89-2.42" transform="translate(-2.73 -5.59)"/><path class="cls-3" d="M80.52,150.65c.56-.26,1.14-.55,1.7-.85s1.11-.64,1.7-1c1.16-.63,2.33-1.18,3.52-1.72-1.07.74-2.13,1.51-3.12,2.31-.49.4-1,.86-1.5,1.27s-1,.81-1.6,1.2Z" transform="translate(-2.73 -5.59)"/><path class="cls-3" d="M103.53,171.54l3.45-5.23-.06.14a.31.31,0,0,0,0-.1.71.71,0,0,1,0-.14,1.67,1.67,0,0,0,0-.31,3.52,3.52,0,0,0-.09-.64,8.79,8.79,0,0,0-.39-1.3,18.32,18.32,0,0,0-1.21-2.48c-.24-.41-.48-.8-.74-1.19s-.52-.78-.79-1.16c-.55-.76-1.12-1.51-1.72-2.23.65.67,1.29,1.37,1.9,2.09.3.36.6.72.89,1.1s.57.75.84,1.14a17.32,17.32,0,0,1,1.46,2.46,10.27,10.27,0,0,1,.54,1.37,5.55,5.55,0,0,1,.17.73c0,.13,0,.26,0,.4a1.47,1.47,0,0,1,0,.21,1.29,1.29,0,0,1,0,.25v0l0,.09-3,5.49Z" transform="translate(-2.73 -5.59)"/><path class="Graphic-Style-6" d="M99.12,154c-.78-.5-1.52-1-2.25-1.52L94.65,151l-2.22-1.53c-.74-.51-1.48-1-2.21-1.58A16.42,16.42,0,0,1,92.73,149a24.2,24.2,0,0,1,2.34,1.41,25,25,0,0,1,2.15,1.69A15.4,15.4,0,0,1,99.12,154Z" transform="translate(-2.73 -5.59)"/><path class="cls-3" d="M153.68,155.75c.59-.23,1.18-.45,1.77-.65s1.2-.39,1.81-.55,1.24-.31,1.87-.42c.31,0,.64-.09,1-.12.17,0,.33,0,.5,0a5.34,5.34,0,0,1,.54,0l.11,0,.13.12,3.06,2.81-1,1-2.69-3.17.24.14a3.08,3.08,0,0,0-.39-.07l-.45,0c-.3,0-.6,0-.91,0-.61,0-1.23.09-1.84.18s-1.23.2-1.85.32S154.29,155.59,153.68,155.75Z" transform="translate(-2.73 -5.59)"/><line class="cls-35" x1="132.33" y1="168.69" x2="129.68" y2="161.13"/><polygon class="cls-3" points="131.66 168.93 129.68 161.13 133.01 168.45 131.66 168.93"/><path class="Graphic-Style-6" d="M137.6,164.11a21.84,21.84,0,0,1,3.15-2.69c.57-.4,1.15-.77,1.74-1.14s1.2-.69,1.82-1a36.35,36.35,0,0,1,3.78-1.69,33.65,33.65,0,0,1,3.95-1.27c-1.24.62-2.48,1.2-3.72,1.8s-2.47,1.17-3.68,1.81-2.4,1.28-3.58,2S138.74,163.34,137.6,164.11Z" transform="translate(-2.73 -5.59)"/><path class="cls-34" d="M132.83,172.83a.36.36,0,0,0-.44-.28s-.45.1-1.26.22l-.1-.59a.35.35,0,0,0-.42-.29.36.36,0,0,0-.3.42l.1.55c-1.08.14-2.56.27-4.36.32a.35.35,0,0,0-.35.37.36.36,0,0,0,.36.36h0c1.86,0,3.37-.19,4.47-.32l.06.36a.37.37,0,0,0,.36.31H131a.36.36,0,0,0,.3-.42l-.06-.34c.8-.12,1.25-.22,1.29-.23A.36.36,0,0,0,132.83,172.83Z" transform="translate(-2.73 -5.59)"/><path class="cls-34" d="M124.76,173.19c-1.72,0-3.49-.09-5.24-.26l-.83-.09a.37.37,0,0,0-.41.32.38.38,0,0,0,.32.41l.85.09a52.75,52.75,0,0,0,5.31.27.37.37,0,1,0,0-.74Z" transform="translate(-2.73 -5.59)"/><path class="cls-34" d="M113.45,171.91c-1-.23-1.78-.48-2.48-.71l.27-.71a.36.36,0,0,0-.68-.26l-.28.73a14.54,14.54,0,0,1-2-.89.37.37,0,0,0-.5.13.36.36,0,0,0,.14.5,13.26,13.26,0,0,0,2.15.94l-.24.62a.37.37,0,0,0,.21.47l.13,0a.38.38,0,0,0,.35-.24l.24-.64c.72.24,1.57.5,2.56.74h.09a.37.37,0,0,0,.09-.72Z" transform="translate(-2.73 -5.59)"/><path class="cls-3" d="M91.21,204.56v0l0,0,.06-.09.13-.22a4.1,4.1,0,0,0,.21-.48,5.18,5.18,0,0,0,.14-.53l.08-.56c0-.19,0-.38,0-.58v-.29l0-.29-.08-.58c0-.2-.11-.39-.16-.58l-.17-.58-.23-.57a10.26,10.26,0,0,0-.52-1.12l-.61-1.09-.71-1a41.68,41.68,0,0,0-7-7.38c-.65-.55-1.29-1.12-2-1.65s-1.35-1-2.06-1.49a32,32,0,0,0-4.49-2.45A39.91,39.91,0,0,0,64,180.05a39.71,39.71,0,0,1,10,2.56,31.34,31.34,0,0,1,4.63,2.33c.74.45,1.46.93,2.16,1.45s1.36,1.06,2,1.59a42.59,42.59,0,0,1,7.4,7.3l.78,1.06.69,1.14a9.59,9.59,0,0,1,.6,1.2l.28.61.22.65c.06.22.14.43.2.66l.12.68.07.35c0,.11,0,.23,0,.35s0,.47,0,.71l-.07.72c0,.24-.11.48-.17.72a4.76,4.76,0,0,1-.28.71,3.29,3.29,0,0,1-.45.71Z" transform="translate(-2.73 -5.59)"/><path class="cls-34" d="M161.85,175.06l.93-.55a.37.37,0,0,0,.12-.51.36.36,0,0,0-.5-.12l-.8.47c-.1-.29-.21-.58-.31-.88l.47-.09a.36.36,0,0,0,.3-.42.38.38,0,0,0-.43-.3l-.6.12c-.95-2.58-2-5.12-3.15-7.61l.77-.45a.37.37,0,0,0,.13-.5.36.36,0,0,0-.5-.13l-.71.41-.66-1.39a.37.37,0,0,0-.66.32l.69,1.44-1,.59a.35.35,0,0,0-.13.5.37.37,0,0,0,.31.18.45.45,0,0,0,.19,0l.92-.55q1.66,3.63,3.06,7.37l-.52.1a.36.36,0,0,0,.07.72h.06l.65-.12.4,1.12-.75.45a.37.37,0,0,0-.13.5.36.36,0,0,0,.32.18.41.41,0,0,0,.18-.05l.62-.37c.18.51.35,1,.52,1.52a.36.36,0,0,0,.34.26l.12,0a.36.36,0,0,0,.23-.46C162.23,176.18,162,175.62,161.85,175.06Z" transform="translate(-2.73 -5.59)"/><path class="cls-34" d="M153.61,156.86a.37.37,0,0,0-.63.37c.43.76.86,1.54,1.28,2.31a.36.36,0,0,0,.32.2.41.41,0,0,0,.18-.05.37.37,0,0,0,.15-.49C154.49,158.42,154.05,157.63,153.61,156.86Z" transform="translate(-2.73 -5.59)"/><path class="cls-34" d="M165.34,183.36a.35.35,0,0,0-.44-.27l-.59.14c-.23-.86-.46-1.72-.7-2.57a.37.37,0,0,0-.45-.26.38.38,0,0,0-.26.46q.36,1.26.69,2.55l-.68.16a.37.37,0,0,0,.09.72h.09l.68-.16c.18.72.36,1.44.52,2.16a.37.37,0,0,0,.36.29h.08a.37.37,0,0,0,.28-.44c-.17-.72-.34-1.45-.53-2.18l.59-.14A.36.36,0,0,0,165.34,183.36Z" transform="translate(-2.73 -5.59)"/><path class="cls-34" d="M91.46,152a.36.36,0,0,0-.5-.1l-1.48,1-.86-.95a.37.37,0,1,0-.54.5l.8.88q-2,1.45-3.92,3l-1-.47a.35.35,0,0,0-.48.17.36.36,0,0,0,.18.49l.72.33c-.55.47-1.1.94-1.63,1.42a.37.37,0,0,0,.24.64.33.33,0,0,0,.24-.1c.62-.55,1.25-1.09,1.88-1.62l.93.43.15,0a.37.37,0,0,0,.15-.7l-.6-.28c1.2-1,2.42-1.93,3.68-2.84l.71.77a.36.36,0,0,0,.27.12.38.38,0,0,0,.25-.09.37.37,0,0,0,0-.52l-.65-.71c.46-.33.92-.65,1.39-1A.37.37,0,0,0,91.46,152Z" transform="translate(-2.73 -5.59)"/><path class="cls-34" d="M79.21,161.63a77.63,77.63,0,0,0-9.07,11.11l-1.36-.91a.36.36,0,0,0-.5.11.35.35,0,0,0,.1.5l1.34.9q-1.36,2.08-2.61,4.25a.37.37,0,0,0,.14.5.41.41,0,0,0,.18,0,.37.37,0,0,0,.32-.19q1.22-2.14,2.58-4.2l1.34.89a.36.36,0,0,0,.2.06.38.38,0,0,0,.31-.16.37.37,0,0,0-.1-.51l-1.34-.89a77.44,77.44,0,0,1,9-11,.37.37,0,1,0-.52-.52Z" transform="translate(-2.73 -5.59)"/><path class="cls-36" d="M101.27,117.23h0l.09-.19-.2.06a5,5,0,0,0,.39-.8q.11-.28.18-.57c.55-1.76.28-3.68.56-4.07a1.47,1.47,0,0,0-.65.41c-.06-.44-.15-.79-.19-1-.21-1.17.12-1.45.12-1.45h0s-2.38.48-2.94,2.42a3.69,3.69,0,0,0,0,2,4.43,4.43,0,0,1,.17,2.78,3.54,3.54,0,0,0-.23-2,3.32,3.32,0,0,1-.56,1.19,3.08,3.08,0,0,1-4.3.63,3.24,3.24,0,0,1-.5-.48,2.64,2.64,0,0,1-.46-.66,3,3,0,0,1-.22-1.22h0l0,0a2,2,0,0,0,.25.32,2.43,2.43,0,0,0,1.35.78c.54.07.9.09,1,.29h0a.24.24,0,0,0,.43-.16,1.27,1.27,0,0,0-.7-1.12c-.43-.24-1-.23-1.31-.87a1.12,1.12,0,0,0,0-.13s.09.11.07.06a4.08,4.08,0,0,1-.18-.43s.06.08.06.07a1.37,1.37,0,0,1-.08-.59.75.75,0,0,1,.37-.55.58.58,0,0,1,.36,0,1.19,1.19,0,0,1,.06.14s0-.08,0-.12h0a2.37,2.37,0,0,1,.15.32.4.4,0,0,1,0,.19s0,0,0-.06a.36.36,0,0,0,0-.23h0c0,.06,0,.13.07.2a.88.88,0,0,0,.3-.27c.07-.11.09-.13.1-.19s.05,0,.05,0a.3.3,0,0,0,0-.1h0l0,0h.12a5.14,5.14,0,0,1,.7.12l.38.09h.15a.94.94,0,0,0,.53-.23l0-.06h0c0-.09,0-.25-.7-.84a.76.76,0,0,1-.15-.84h0a2.15,2.15,0,0,1,1.32-.34s-.08,0,0-.06.21.06.24.06-.07-.17-.23-.27a1.14,1.14,0,0,0-.31-.13.65.65,0,0,1,.16,0,1.94,1.94,0,0,0-.68-.2s0,0,0,0a1.06,1.06,0,0,0-.53,0l0-.06-.28,0h0a2.8,2.8,0,0,0-1.14-1h0a1.28,1.28,0,0,1,0-.4h0a1.37,1.37,0,0,1,0-.19.88.88,0,0,1,0-.16h0s0,0,0,0h0a1.89,1.89,0,0,1,.34-.66h0a.85.85,0,0,0-.49.14l-.12.06h0l.06-.06h0a.89.89,0,0,0-.19.07.85.85,0,0,0-.15.09s0,0,0,0,0,0,0,0h0a4.17,4.17,0,0,0-1.06.84,1.27,1.27,0,0,0-.14.18h0a2.55,2.55,0,0,0-.56.17,6.86,6.86,0,0,0-1.69,1,4.25,4.25,0,0,1,.74-.32,6.68,6.68,0,0,0-1.78,1.63,6.94,6.94,0,0,1,.58-.44,5.84,5.84,0,0,0-1.24,2.55,6.43,6.43,0,0,0,.32,3.86h0a5.37,5.37,0,0,0,.77,1.47l.12.19,0-.07a6.45,6.45,0,0,0,1.38,1.39c1.86,1.39,3,1.14,3.12,1.11h0a1.14,1.14,0,0,0,.44-.13h0l.14,0h.09a4.63,4.63,0,0,0,1.16.09,2.36,2.36,0,0,0,1.53-.52h0a.81.81,0,0,0,.37-.49l.14,0a5.51,5.51,0,0,0,2.25-1.64h0l0-.07A3.84,3.84,0,0,0,101.27,117.23Z" transform="translate(-2.73 -5.59)"/><path class="cls-37" d="M83.37,203c-.52.74-6.53.08-11.72-3.32s-8.88-8.92-8.31-10.09c.35-.71,7,.37,12.2,3.78S83.8,202.36,83.37,203Z" transform="translate(-2.73 -5.59)"/><path class="cls-38" d="M64.2,189.35a25.17,25.17,0,0,1,11.34,4c5.2,3.41,8.26,9,7.83,9.63-.13.18-.56.28-1.21.28a21.81,21.81,0,0,1-10.51-3.6c-5.2-3.41-8.88-8.92-8.31-10.09.07-.13.38-.21.86-.21m0-1.07c-.39,0-1.42,0-1.82.82-.51,1.05.2,2.84,2.1,5.32a27.88,27.88,0,0,0,6.58,6.12,22.66,22.66,0,0,0,11.1,3.78c1.09,0,1.73-.23,2.08-.73a1.49,1.49,0,0,0,.2-1.18c-.35-1.8-3.5-6.81-8.31-10-4.32-2.84-9.68-4.16-11.93-4.16Z" transform="translate(-2.73 -5.59)"/><path class="cls-39" d="M173.44,195.76c.31.94-4.08,5.68-10.3,7.92s-13.27,1.78-13.91.52c-.39-.77,4.77-5.79,11-8S173.19,195,173.44,195.76Z" transform="translate(-2.73 -5.59)"/><path class="cls-40" d="M168.28,194.83c2.91,0,5,.51,5.16.93.31.94-4.08,5.68-10.3,7.92a28,28,0,0,1-9.13,1.57c-2.58,0-4.46-.43-4.78-1.05s4.77-5.79,11-8a24.36,24.36,0,0,1,8.06-1.34m0-1.08h0a25.47,25.47,0,0,0-8.43,1.41c-5.51,2-10.83,6.42-11.59,8.33a1.46,1.46,0,0,0,0,1.2c.69,1.35,3.5,1.63,5.74,1.63a29.16,29.16,0,0,0,9.49-1.63,26.08,26.08,0,0,0,7.94-4.64c1.61-1.39,3.44-3.32,3-4.62-.22-.66-.9-1.06-2.35-1.35a20.7,20.7,0,0,0-3.83-.33Z" transform="translate(-2.73 -5.59)"/><path class="cls-41" d="M231.19,7.12a4.93,4.93,0,0,0-.24-.56L230.6,7l-1,1.16a16.7,16.7,0,0,1-4.07,3.55c-.45.26-1.22.67-1.77,1.06A12.82,12.82,0,0,0,222.3,14a9.9,9.9,0,0,0-1.76,2.23,4.8,4.8,0,0,0-.73,2.09s0,.09,0,.12a6.13,6.13,0,0,0-.57.34,11.33,11.33,0,0,0-1.71,1.35,9.53,9.53,0,0,0-1.91,2.6,7.29,7.29,0,0,0-.66,1.87,8.55,8.55,0,0,1-.28,1,11.08,11.08,0,0,0-3.79,2.65,10.92,10.92,0,0,0-2.34,3.9,9,9,0,0,0-.51,2.78,5.12,5.12,0,0,0,0,.76l-.49.22c-.51.26-1,.52-1.43.8a12,12,0,0,0-3.66,3.53,8,8,0,0,0-1.19,2.72,3.6,3.6,0,0,0-.09,1l.34-.07c-.33.15-.65.3-1,.46s-.6.37-.89.55a10.72,10.72,0,0,0-4.1,5.15,8.85,8.85,0,0,0-.59,3.78c0,.29.06.51.09.7-.91,1.16-1.2,2.94-.39,3.72l0,.06a8.48,8.48,0,0,1-.19.91c.25-.15,1,.13,1.23.19.5.13,1,.29,1.47.44,1.16.37,2.32.73,3.5,1,3.89.93,8.11,1.32,11.5-1.22a9.59,9.59,0,0,0,3.35-4.69,8.64,8.64,0,0,0,.44-2.94,12.45,12.45,0,0,0-.34-1.76c.33-.26.64-.53.92-.8A14.15,14.15,0,0,0,220,44.23a12.14,12.14,0,0,0,.81-3.79,7.85,7.85,0,0,0,0-1c0-.18-.08-.55-.1-.68l.34-.3A11.71,11.71,0,0,0,223.86,34a8.88,8.88,0,0,0,.53-3.08c0-.51-.13-1.56-.19-2.1a10.85,10.85,0,0,0,1.31-2.76,9.13,9.13,0,0,0,.41-3,4.42,4.42,0,0,0-.13-1,10.05,10.05,0,0,0,1.73-1.72,9.83,9.83,0,0,0,1.57-2.89,9.79,9.79,0,0,0,.14-3.8,7.71,7.71,0,0,0,1.34-1.8,6.91,6.91,0,0,0,.83-2.94A5.43,5.43,0,0,0,231.19,7.12Z" transform="translate(-2.73 -5.59)"/><path class="cls-42" d="M231.71,7a5.71,5.71,0,0,0-.27-.65l-.37-.71-.53.6-.36.43-1.06,1.25a16.4,16.4,0,0,1-3.85,3.34l-.36.21a16.7,16.7,0,0,0-1.44.87,11.69,11.69,0,0,0-1.55,1.26,10.66,10.66,0,0,0-1.86,2.36,6.13,6.13,0,0,0-.79,2.15l-.33.21a11.1,11.1,0,0,0-1.8,1.42,10.11,10.11,0,0,0-2,2.74,7.81,7.81,0,0,0-.71,2,5.4,5.4,0,0,1-.19.67,12,12,0,0,0-3.75,2.69A11.72,11.72,0,0,0,208,31.89a9.91,9.91,0,0,0-.54,3c0,.15,0,.29,0,.42l-.17.08c-.42.22-1,.5-1.48.83A12.62,12.62,0,0,0,202,39.86a8.49,8.49,0,0,0-1.26,2.91,4.53,4.53,0,0,0-.11.82l-.35.2c-.32.19-.62.38-.91.58a12.63,12.63,0,0,0-4.25,5.27l0,.08a45.26,45.26,0,0,0-2.2,5.79l1,.32s.06-.19.15-.48a46.81,46.81,0,0,0,6.43.13l.62,0a40.13,40.13,0,0,0,14.51-4.25,21.15,21.15,0,0,1-.66,3.54,11.53,11.53,0,0,1-2,4.18l-.26.11-.52.17a10.2,10.2,0,0,1-1.09.27,19,19,0,0,1-2.26.34,22,22,0,0,0,2.31.21c.39,0,.78,0,1.18,0,.2,0,.4,0,.6,0a3.62,3.62,0,0,0,.65-.12h0a.42.42,0,0,0,.14-.06.53.53,0,0,0,.25-.4,12.84,12.84,0,0,0,2-4.33,23.74,23.74,0,0,0,.77-4.56l.06-.07,0,0a22.39,22.39,0,0,0,2.89-4.68,21.29,21.29,0,0,0,1.49-6.33c0-.11,0-.27-.05-.42l.13-.12a12,12,0,0,0,3-4.6,9.34,9.34,0,0,0,.56-3.27c0-.45-.09-1.28-.17-2A11.37,11.37,0,0,0,226,26.25a9.81,9.81,0,0,0,.43-3.17,6.39,6.39,0,0,0-.07-.79,11.27,11.27,0,0,0,1.55-1.6,10.41,10.41,0,0,0,1.66-3.05,9.59,9.59,0,0,0,.19-3.78,8.53,8.53,0,0,0,1.25-1.74A7.45,7.45,0,0,0,232,9,5.71,5.71,0,0,0,231.71,7ZM218.8,45.27a21.16,21.16,0,0,1-2.73,4.4c-4,2.61-11.17,4.48-15.6,4.72a49.44,49.44,0,0,1-6-.11,34.34,34.34,0,0,1,1.62-4.06l0-.08A11.87,11.87,0,0,1,200,45.28l.83-.53a3.66,3.66,0,0,0,.5-.3.47.47,0,0,0,.17,0,9.81,9.81,0,0,1,5-.56,18.09,18.09,0,0,0,3.21,0,22.83,22.83,0,0,0,6.47-1.57,16.68,16.68,0,0,0,4-2.5A21.74,21.74,0,0,1,218.8,45.27Zm4.54-11.42A10.86,10.86,0,0,1,220.61,38l-.14.13a.42.42,0,0,0-.17.1,18.6,18.6,0,0,1-4.54,3,19.8,19.8,0,0,1-9.18,1.48,12.61,12.61,0,0,0-4.77.36s0-.08,0-.13a7.55,7.55,0,0,1,1.1-2.53,11.74,11.74,0,0,1,3.5-3.37c.47-.29,1-.57,1.36-.76l.17-.08a.41.41,0,0,0,.18,0,13.72,13.72,0,0,1,4.25-.85,18.23,18.23,0,0,0,8.26-2.75A16.53,16.53,0,0,0,223.77,30c0,.41.06.73.07.93A8.29,8.29,0,0,1,223.34,33.85ZM225,25.94a9.9,9.9,0,0,1-1.13,2.43,19.65,19.65,0,0,1-3.75,3.28,17.41,17.41,0,0,1-7.79,2.6,17.35,17.35,0,0,0-3.73.64v0a8.54,8.54,0,0,1,.48-2.6,10.31,10.31,0,0,1,2.22-3.7,10.63,10.63,0,0,1,3.6-2.53l.23-.09v-.05a10,10,0,0,1,2.57-.43c2.52-.16,4.43-.35,6.07-1.28a14.51,14.51,0,0,0,1.61-1.08v0A8.38,8.38,0,0,1,225,25.94Zm3.59-8.65A9.36,9.36,0,0,1,227.09,20,10.18,10.18,0,0,1,226,21.17l-.16.1a15.65,15.65,0,0,1-2.62,1.95c-1.44.81-3.23,1-5.6,1.13a12.7,12.7,0,0,0-2.13.29,7.25,7.25,0,0,1,.61-1.72,9.27,9.27,0,0,1,1.8-2.44,10.13,10.13,0,0,1,1.63-1.29c.18-.12.33-.21.53-.32l.28-.16h0A7.66,7.66,0,0,1,222.5,18a10.4,10.4,0,0,0,4.71-1.64A9.59,9.59,0,0,0,228.79,15,6.5,6.5,0,0,1,228.57,17.29Zm2.28-8.39a6.29,6.29,0,0,1-.77,2.71A7.44,7.44,0,0,1,229,13.16l0,0,0,.06,0,0-.19.19v0a10.92,10.92,0,0,1-2.06,2A9.5,9.5,0,0,1,222.33,17a8.44,8.44,0,0,0-1.75.46,6.32,6.32,0,0,1,.44-1,9.18,9.18,0,0,1,1.66-2.1,11.24,11.24,0,0,1,1.42-1.16c.4-.28.92-.58,1.35-.82l.38-.22a17.05,17.05,0,0,0,4.11-3.55l.82-1A5.5,5.5,0,0,1,230.85,8.9Z" transform="translate(-2.73 -5.59)"/><path class="cls-43" d="M194.29,33.2a46.82,46.82,0,0,0-10,6.28c-8.06,6.43-7.44,16.33-1.06,21.72a14.23,14.23,0,0,0,5.61,2.88,14.05,14.05,0,0,0,9.09-9.93C199.27,48.58,198.05,39,194.29,33.2Z" transform="translate(-2.73 -5.59)"/><path class="cls-3" d="M195.68,59a14.31,14.31,0,0,0,2.2-6.27l.09-.83,0-.84c0-.55,0-1.11,0-1.66,0-1.12-.11-2.23-.24-3.34a36.06,36.06,0,0,0-1.37-6.51,25.23,25.23,0,0,0-2.72-6l.86.26a46.75,46.75,0,0,0-8.09,4.83c-.63.46-1.27.94-1.88,1.44l-.86.76a5.2,5.2,0,0,0-.44.38l-.39.42c-.26.28-.53.55-.79.84l-.69.91a6.61,6.61,0,0,0-.63,1l-.3.49-.15.25-.12.26-.48,1c-.13.36-.24.73-.37,1.09a7.22,7.22,0,0,0-.28,1.11,7.21,7.21,0,0,0-.19,1.13c0,.39-.08.77-.08,1.15v1.16a12.6,12.6,0,0,0,.37,2.28,12.93,12.93,0,0,0,1.89,4.26l.16.25.18.24.36.46.37.47c.13.15.27.28.41.43s.53.59.84.84l.91.78a14.6,14.6,0,0,1-3.6-3.2l-.72-1-.61-1.06c-.05-.09-.11-.17-.15-.26l-.13-.28-.24-.57c-.08-.19-.17-.37-.24-.57l-.18-.59a12.44,12.44,0,0,1-.57-4.89,7.37,7.37,0,0,1,.15-1.24,7.37,7.37,0,0,1,.26-1.22c.12-.4.22-.8.35-1.2l.49-1.15.12-.29.15-.27.31-.54a7.79,7.79,0,0,1,.66-1.06l.73-1c.27-.32.55-.62.83-.93l.41-.47.46-.42.93-.82c.63-.52,1.26-1,1.91-1.5a43.63,43.63,0,0,1,8.35-5l.55-.24.32.5a24.79,24.79,0,0,1,2.76,6.37A33.19,33.19,0,0,1,198.79,46a26.67,26.67,0,0,1-.32,6.85A13.45,13.45,0,0,1,195.68,59Z" transform="translate(-2.73 -5.59)"/><path class="cls-32" d="M184.84,57.58s-2.73-3.38.36-9.79a29.38,29.38,0,0,1,8.29-10.14s3.26,9.56,1.1,15C191.11,61.34,184.84,57.58,184.84,57.58Z" transform="translate(-2.73 -5.59)"/><path class="cls-3" d="M184.84,57.58a4.94,4.94,0,0,1-.8-1.25,7.26,7.26,0,0,1-.47-1.43,9.57,9.57,0,0,1-.13-3l.11-.76c0-.25.11-.49.17-.73a14.23,14.23,0,0,1,.43-1.45c.17-.48.39-.93.59-1.39s.44-.9.68-1.34A27.43,27.43,0,0,1,187,43.7a25.92,25.92,0,0,1,1.9-2.29,21.65,21.65,0,0,1,4.56-3.76A45.5,45.5,0,0,0,189.56,42c-.58.77-1.18,1.52-1.7,2.33s-1,1.61-1.51,2.44A18.34,18.34,0,0,0,184.27,52a10.26,10.26,0,0,0-.18,2.82,6.91,6.91,0,0,0,.23,1.41A5.71,5.71,0,0,0,184.84,57.58Z" transform="translate(-2.73 -5.59)"/><path class="cls-3" d="M181.4,108.51a23.65,23.65,0,0,1-3.92-5.5,23,23,0,0,1-.76-19.45A23,23,0,0,0,175.33,90a22.66,22.66,0,0,0,2.87,12.61,22.73,22.73,0,0,0,4,5.11Z" transform="translate(-2.73 -5.59)"/><path class="cls-33" d="M222,105.74c-.73-.08-1.46-.18-2.2-.3a31.6,31.6,0,0,1-4.36-1,30.11,30.11,0,0,1-4.17-1.65,31.59,31.59,0,0,1-3.95-2.25,20.18,20.18,0,0,0,3.17,4.9,42.24,42.24,0,0,0,4.57,4.1h0a49.43,49.43,0,0,1,5.09-1.71,22.17,22.17,0,0,1,3.64-.62l.07-.07.12-1.37A19.68,19.68,0,0,1,222,105.74Z" transform="translate(-2.73 -5.59)"/><path class="cls-3" d="M143.15,199.9a29.43,29.43,0,0,1,7.83-6.29,43.31,43.31,0,0,1,4.51-2.28c1.55-.67,3.12-1.29,4.73-1.82a34.12,34.12,0,0,1,9.95-2.06,13.5,13.5,0,0,1,5.17.72l.62.26.31.13.3.17c.2.12.4.22.59.34l.56.41a6.61,6.61,0,0,1,1,1c.15.17.28.38.42.57a3.8,3.8,0,0,1,.36.7l-1.35.46v0l0,0-.05-.11-.13-.23c-.1-.15-.19-.31-.3-.45a6.54,6.54,0,0,0-.77-.81l-.45-.35c-.16-.11-.33-.2-.49-.3l-.24-.15-.27-.13-.53-.24a12.4,12.4,0,0,0-4.71-.82,20.26,20.26,0,0,0-2.46.12c-.41,0-.81.11-1.22.16l-1.23.19-2.43.54c-.8.21-1.61.41-2.41.66q-2.4.7-4.73,1.64a43.38,43.38,0,0,0-4.55,2.09A29.43,29.43,0,0,0,143.15,199.9Z" transform="translate(-2.73 -5.59)"/><path class="cls-3" d="M223.94,107.23a39.08,39.08,0,0,1-4.91-.94c-.81-.2-1.6-.42-2.39-.67s-1.57-.5-2.35-.81a26.48,26.48,0,0,1-4.37-2.33,34.49,34.49,0,0,1-3.92-3,33,33,0,0,0,4.1,2.66,25.74,25.74,0,0,0,4.43,2c.76.23,1.55.44,2.34.61s1.58.35,2.38.49a41.46,41.46,0,0,0,4.78.56Z" transform="translate(-2.73 -5.59)"/></svg>