<?xml version="1.0" encoding="utf-8"?>
<!DOCTYPE svg PUBLIC "-//W3C//DTD SVG 1.1//EN" "http://www.w3.org/Graphics/SVG/1.1/DTD/svg11.dtd">
<svg version="1.1" id="Whimsycorn" xmlns="http://www.w3.org/2000/svg" xmlns:xlink="http://www.w3.org/1999/xlink" x="0px" y="0px"
	 viewBox="0 0 277.9 279.4" style="enable-background:new 0 0 277.9 279.4;" xml:space="preserve">
<style type="text/css">
	.st0{fill:#344555;}
	.st1{fill:url(#SVGID_1_);}
	.st2{fill:url(#SVGID_2_);}
	.st3{fill:url(#SVGID_3_);}
	.st4{fill:url(#SVGID_4_);}
	.st5{fill:url(#SVGID_5_);}
	.st6{fill:url(#SVGID_6_);}
	.st7{fill:url(#SVGID_7_);}
	.st8{fill:url(#SVGID_8_);}
	.st9{fill:url(#SVGID_9_);}
	.st10{fill:url(#SVGID_10_);}
	.st11{fill:#E9CCFF;}
	.st12{fill:none;stroke:#344555;stroke-width:0.4;stroke-miterlimit:10;}
	.st13{fill:#FBF6FA;}
	.st14{fill:#CEDAE6;}
	.st15{fill:#A2B3BF;}
</style>
<path class="st0" d="M245.8,78c-1.1-1.5-2.3-2.9-3.6-4.2c1-1.2,1.9-2.5,2.4-4c0.5-1.3,0.7-2.5,0.7-3.8c0-0.8-0.1-1.4-0.1-1.7
	c1.5-1.3,2.5-2.6,3.2-3.6c1.9-2.8,2.4-5.3,2.5-6.5c0.2-1.9-0.2-3.1-0.3-3.6l-0.5-1.5c2.8-1.6,5.2-3.9,6.6-6.4
	c1.9-3.4,1.7-6.3,1.5-7.8c-0.1-0.6-0.3-1.3-0.5-1.8c0.9-0.9,1.6-1.8,2.1-2.8c1.2-2.3,1.7-4.8,1.1-7c-0.1-0.6-0.4-1.2-0.7-1.7
	c0.4-0.4,0.8-0.9,1.1-1.4c1.2-1.8,1.7-3.9,1.4-5.7c-0.2-1-0.5-1.9-1.1-2.6c0.8-1.1,1.4-2.3,1.7-3.6c0.3-1.2,0.4-2.5,0.2-3.6
	c-0.3-2.3-2.4-3.2-3.4-3.7c-0.3-0.1-1.4-0.6-2.2-0.8c-1-0.2-1.9-0.3-2.8-0.3L255,0c-0.7,0-1.3,0.1-1.9,0.2c-0.3,0-0.5,0.1-0.9,0.2
	l-0.1,0l-0.1,0l-0.2,0l-0.1,0l-0.1,0l-0.2,0.1l0,0l0,0c-0.3,0.1-0.5,0.2-0.7,0.3c-3.1,1.5-5.1,4.1-5.8,7.4c-0.1,0.8-0.2,1.4-0.2,1.9
	c-1.3,0.4-2.5,0.8-3.5,1.5c-2,1.2-3.6,2.9-4.6,4.8c-0.9,1.7-1,3.3-1,4.3c-1.3,0.5-2.5,1.1-3.7,1.9c-2.2,1.5-4.1,3.5-5.2,5.7
	c-0.2,0-0.5-0.1-0.7-0.1c-0.9,0-1.8,0.3-2.5,0.9c-1.3,1-1.8,2.7-1.3,4.2c0,0,0,0.1,0,0.1c0,0.1,0,0.3,0,0.5c0,0.2-0.1,0.4-0.1,0.5
	c-0.1,0.2-0.3,0.4-0.5,0.6c-0.4,0.3-1.1,0.7-1.9,1.1c-0.7,0.3-1.6,0.6-2.7,0.9c-0.3,0.1-0.5,0.1-0.7,0.2c-0.4,0.1-0.7,0.2-1.2,0.3
	l-0.1-1.6L215,35c-0.2-3.4-0.4-6.7-0.7-9.5c-0.4-5.3-0.9-8.6-0.9-8.7c-0.2-1.6-1.4-2.9-3-3.4c-0.3-0.1-0.7-0.1-1-0.1
	c-1.3,0-2.5,0.6-3.2,1.6c-0.1,0.1-1.9,2.6-4.3,6.7c-0.9,1.5-1.7,3-2.4,4.5c-0.3-0.4-0.5-0.8-0.8-1.1c-1.5-1.9-3.1-3.5-4.8-4.8
	c-1.2-1-2-1.5-2.2-1.5c-0.6-0.4-1.3-0.5-2-0.5c-0.8,0-1.6,0.2-2.3,0.7c-1.3,0.9-1.9,2.5-1.6,4c0,0,0,0,0,0c0,0,0.1,0.5,0.1,1.3
	c0.1,1.2,0,2.7-0.2,4.2c-0.1,0.9-0.3,1.9-0.5,2.9l-0.2,1.1l-0.1,0.6c0,0,0,0.1,0,0.1l0,0.2c-0.1,0.6-0.2,1.4-0.3,2.1
	c-0.1,0.9-0.2,1.9-0.2,2.8c-0.5-0.8-0.9-1.5-1.3-2.2c-3.1-5.2-5.3-8.3-5.4-8.4c-0.8-1.1-2-1.7-3.3-1.7c-0.2,0-0.4,0-0.6,0
	c-1.5,0.2-2.7,1.3-3.2,2.8c-0.1,0.2-1.3,4.1-2.4,10.4c-0.7,3.9-1.1,7.6-1.2,11.2c0,1.1-0.1,2.3,0,3.5c-1.6-1.7-3.1-3.2-4.4-4.5
	c-3.7-3.5-6.2-5.4-6.3-5.5c-0.7-0.5-1.6-0.8-2.4-0.8c-0.7,0-1.3,0.2-1.9,0.5c-1.4,0.7-2.2,2.2-2.1,3.8c0,0.2,0.3,3.9,1.3,9.6
	c0.6,3.5,1.4,6.8,2.2,9.9c0.2,0.8,0.5,1.7,0.7,2.5l-5.1-4.1c-0.7-0.6-1.6-0.9-2.5-0.9c-0.7,0-1.4,0.2-2,0.5
	c-1.4,0.8-2.2,2.5-1.9,4.1c0.1,0.3,0.6,3.5,2.5,7.8c0.2,0.4,0.4,0.8,0.5,1.1c-2.5-0.8-5.1-1.4-7.8-1.8c-2-0.3-4-0.4-6-0.4
	c-0.3,0-0.7,0-1,0c-1.7,0-2.6,0.2-2.7,0.2c-1.3,0.2-2.4,1-3,2.1s-0.6,2.5,0,3.7c0.1,0.1,1.6,3,4,7.3c0.6,1,1.2,2.1,1.9,3.2
	c-5.5-3.3-9.7-4.8-10-4.9c-0.4-0.1-0.9-0.2-1.3-0.2c-1.1,0-2.1,0.4-2.9,1.2c-1.1,1.1-1.4,2.8-0.9,4.2c0.1,0.4,2.6,6.8,7.5,14
	c-0.4-0.1-0.7-0.2-1.1-0.3c-0.1-0.1-0.3-0.1-0.4-0.2c0,0,0,0-0.1,0c-2-0.7-4.1-1.2-6.3-1.4c-0.9-0.1-1.9-0.1-2.7-0.1
	c-1.9,0-3.1,0.2-3.4,0.3c-1.6,0.3-2.8,1.5-3.2,3.1c-0.3,1.6,0.4,3.2,1.7,4.1c0,0,0,0,0,0c-0.7,0.5-1.3,1.2-1.6,2
	c-0.1,0.2-0.1,0.3-0.1,0.5c0,0.2-0.1,0.3-0.1,0.5c-0.1,0.4-0.2,1.7,0.1,3.5c0.1,0.8,0.5,2.6,1.6,4.5c-6.3,1.9-12.2,4.7-17.5,8.4
	c0-0.8-0.1-1.5-0.2-2.4c-0.8-5.2-2.7-8.4-4.1-10.2c-0.8-0.9-1.6-1.8-2.5-2.3c-0.8-0.5-1.4-0.8-1.8-0.9c-0.4-0.1-0.8-0.2-1.2-0.2
	c-0.4,0-0.7,0-1.1,0.1c-0.1-0.2-0.3-0.4-0.5-0.6c-1.3-1.7-2.7-3.2-4.4-4.5c-2.6-2.1-4.3-2.8-4.7-3c-0.4-0.2-0.9-0.2-1.3-0.2
	c-0.9,0-1.7,0.3-2.4,0.8c-0.9-0.8-1.7-1.6-2.5-2.3c-2.2-2-4.5-3.7-6.8-5.2c-1.5-1-2.9-1.8-4.3-2.5c-1-0.5-1.5-0.7-1.6-0.8
	c-0.5-0.2-1-0.3-1.5-0.3c-1.4,0-2.7,0.7-3.4,1.9c-0.1,0.2-0.2,0.4-0.3,0.6c-3.2-1.6-6.4-2.9-9.7-4.1c-2.8-1-5.3-1.7-7.6-2.1
	c-1.7-0.4-2.7-0.4-2.8-0.5c-0.1,0-0.2,0-0.3,0c-1.4,0-2.7,0.8-3.5,2c-0.2,0.4-0.4,0.8-0.5,1.3c-1.4-1-2.8-2-4.2-2.9
	c-3.1-2-6-3.5-8.7-4.7c-2-0.9-3.1-1.2-3.3-1.2c-0.3-0.1-0.7-0.1-1-0.1c-1.2,0-2.4,0.6-3.2,1.6c-1,1.3-1.1,3-0.3,4.4
	c0,0,0.6,1,1.7,2.8c1,1.5,2.6,4.1,5.1,7.7c2.4,3.5,5.5,7.9,8.5,12.2c-0.7-0.3-1.4-0.5-2.1-0.7c-0.9-0.3-1.6-0.4-2.1-0.5l-0.5-0.1
	c-0.2,0-0.4-0.1-0.7-0.1c-1.3,0-2.4,0.6-3.2,1.6c-0.9,1.2-1,2.8-0.4,4.2c0.1,0.1,1.6,3.2,4.8,8.8c1.7,3.1,3.8,6.6,6.1,10.4l1.7,2.9
	l2.2,3.8c0,0,0,0,0,0.1c0.4,0.6,0.8,1.3,1.2,1.9c-0.3-0.1-0.6-0.1-0.9-0.1c-0.8,0-1.7,0.3-2.4,0.8c-1.2,0.9-1.8,2.4-1.6,3.8
	c0,0.2,0.2,1,0.6,2.4c0.6,1.8,1.5,3.6,2.5,5.5c1.7,2.9,3.7,5.6,6.1,8.1c1.8,1.9,3.5,3.4,5.3,4.7c2.2,1.6,4.6,3.2,7.9,4.5
	c3,1.1,5.8,1.8,8.6,2.1c1,0.1,2,0.2,2.9,0.2c0.3,0,0.5,0,0.8,0c0.1,0,0.1,0,0.2,0c0,0,0,0,0,0l0.6,0c0.9,0,1.8,0,2.7-0.1
	c2.4-0.2,4.7-0.5,6.9-1.1c-0.1,0.7-0.1,1.5-0.2,2.2c-0.6,9.2,1.3,18.4,5.4,26.6c-1.3,1.8-2.5,3.5-3.6,5.2
	c-4.5,6.8-11.4,20.6-14.2,26.2l-0.1,0.3c-1.6,3.1-1.6,7.3,0,12c2.5,7.2,9.9,17.8,22.6,23.7c6.2,2.9,13.1,4.4,20.1,4.4
	c11.4,0,20.3-4,22.6-10.3c0.2-0.6,0.4-1.2,0.5-1.9l0.2,0l0-1.6c0.1-0.8,0-1.7,0-2.6l0,0c0-0.2-0.3-14.4,1-26.7
	c2.7,0.4,5.5,0.8,8.4,0.8c0.9,0,1.7,0,2.5-0.1c4.8-0.4,9.5-1.2,14-2.4c4.3,11.9,7.3,24.4,7.7,25.9c0.2,1.3,0.7,4.1,1.6,5.7
	c2.5,4.5,8.7,7.1,17,7.1c8.9,0,18.4-3,26-8.2c11.5-7.9,17.1-19.5,18.4-27.1c0.8-4.9,0.2-9-1.9-11.9L211,226
	c-3.6-5.1-12.7-17.6-18.2-23.6c-1.8-2-3.9-4.1-6.1-6.2c2-5.8,2.9-11.9,2.8-18.2c0-1.8-0.2-3.5-0.4-5.3c1.1-3.8,3.1-10.1,6.1-15.4
	c3.1-5.5,6.9-10.6,9.1-13.3c3.9,2.5,8.6,4.5,14.1,4.5c0.9,0,1.8-0.1,2.7-0.2c7.2-0.8,13.3-2.3,18.3-4.4c0.1,0,0.2-0.1,0.3-0.1
	c0,0,0.1,0,0.1,0c1.9,0.3,3.8,0.5,5.6,0.5c8.9,0,17.2-3.9,23.4-11.1c5.8-6.7,9.1-15.6,9.1-24.5C277.9,91.9,265.1,79.7,245.8,78z"/>
<linearGradient id="SVGID_1_" gradientUnits="userSpaceOnUse" x1="22.015" y1="164.1681" x2="71.3468" y2="164.1681">
	<stop  offset="0" style="stop-color:#D116C5"/>
	<stop  offset="1" style="stop-color:#B50DD8"/>
</linearGradient>
<path class="st1" d="M69.5,170.7c-1.2-0.2-3-0.6-5.3-1c-2.3-0.4-5.1-0.9-8.4-1.5c-3.2-0.6-6.9-1.4-10.6-2.8
	c-3.5-1.4-6.8-3.4-9.6-5.2c-2.9-1.8-5.3-3.3-7.3-4.5c-4-2.5-6.4-3.6-6.4-3.6s0.1,0.6,0.5,1.7c0.4,1.1,1,2.7,2.2,4.8
	c1.2,2.1,2.9,4.6,5.5,7.3c1.3,1.4,2.9,2.8,4.7,4.2c1.9,1.4,4.1,2.8,6.9,3.9c2.7,1,5.3,1.6,7.7,1.8c1.2,0.2,2.3,0.2,3.4,0.2
	c1.1,0,2.1,0,3-0.1c3.8-0.3,6.8-1,9.1-1.8c2.3-0.8,3.8-1.6,4.8-2.2c1-0.6,1.4-1,1.4-1S70.7,170.9,69.5,170.7z"/>
<linearGradient id="SVGID_2_" gradientUnits="userSpaceOnUse" x1="10.4938" y1="142.8272" x2="68.6236" y2="142.8272">
	<stop  offset="0" style="stop-color:#F83510"/>
	<stop  offset="1" style="stop-color:#D92E0E"/>
</linearGradient>
<path class="st2" d="M68.6,166.5c0,0-2.3-1.5-7.5-4.7c-2.6-1.7-5.8-3.8-9.6-6.7c-1.9-1.4-3.9-3.1-6-4.9c-1.1-0.9-2.1-2-3.2-3
	c-0.5-0.5-1-1.1-1.6-1.7c-0.5-0.6-1.1-1.1-1.6-1.8c-1-1.3-2.1-2.4-2.9-3.7c-0.4-0.6-0.9-1.2-1.3-1.8c-0.4-0.6-0.9-1.3-1.3-1.9
	c-1.7-2.5-3.5-4.6-5.2-6.5c-3.4-3.7-6.7-6.2-9.4-7.9c-2.7-1.6-4.9-2.5-6.3-2.9c-0.7-0.2-1.2-0.3-1.6-0.4c-0.4-0.1-0.5-0.1-0.5-0.1
	s1.5,3,4.7,8.6c1.6,2.8,3.6,6.2,6,10.3c1.2,2,2.5,4.2,4,6.6c1.5,2.4,2.7,4.8,5,7.8c0.5,0.8,1.1,1.4,1.7,2.1c0.6,0.6,1.2,1.3,1.7,1.9
	c0.6,0.6,1.2,1.1,1.9,1.7c0.6,0.5,1.2,1.1,1.9,1.5c2.5,1.9,5,3.3,7.4,4.4c4.8,2.1,9.1,2.9,12.4,3.3c3.4,0.3,5.9,0.1,7.6-0.1
	c1.7-0.2,2.5-0.5,2.5-0.5s-0.1,0-0.2-0.1C68.1,166.4,68.6,166.5,68.6,166.5z"/>
<linearGradient id="SVGID_3_" gradientUnits="userSpaceOnUse" x1="4" y1="129.1625" x2="77.4216" y2="129.1625">
	<stop  offset="0" style="stop-color:#F6A500"/>
	<stop  offset="1" style="stop-color:#F5A100"/>
</linearGradient>
<path class="st3" d="M72,160c1.1,0.8,2.1,1.4,2.8,2c0.4,0.3,0.8,0.6,1.1,0.8c0.3,0.3,0.6,0.5,0.8,0.6c0.4,0.3,0.6,0.5,0.6,0.5
	s-0.1-0.2-0.3-0.7c-0.2-0.4-0.6-1.1-1.1-2c-1.1-1.7-3-4.2-5.7-7.3c-2.8-3.2-6.5-7-11-11.7c-4.5-4.7-9.9-10.3-15.4-17.3
	c-1.4-1.8-2.8-3.6-4.1-5.3c-1.3-1.7-2.8-3.3-4.1-4.8c-1.4-1.5-2.7-2.9-4-4.2c-1.3-1.3-2.6-2.6-3.8-3.7c-5-4.6-9.4-7.8-13-10.1
	c-3.6-2.3-6.4-3.6-8.2-4.5c-1.8-0.8-2.8-1-2.8-1s0.5,0.9,1.6,2.6c1.1,1.7,2.7,4.3,5,7.6c2.3,3.3,5.2,7.4,8.6,12.3
	c1.7,2.4,3.6,5,5.6,7.9c1,1.4,2,2.9,3,4.4c1,1.5,2.1,3.2,3.2,4.8c9.1,13.6,18.7,22.3,26.3,26.1c3.7,1.9,6.7,2.8,8.6,3.4
	c1,0.3,1.7,0.5,2.2,0.6c5.5,4.2,8.7,5.9,8.7,5.9S75.7,164.5,72,160z"/>
<linearGradient id="SVGID_4_" gradientUnits="userSpaceOnUse" x1="25.2619" y1="129.6338" x2="83.3917" y2="129.6338">
	<stop  offset="0" style="stop-color:#6EDC00"/>
	<stop  offset="1" style="stop-color:#66CB00"/>
</linearGradient>
<path class="st4" d="M79.7,143.1c-1.3-3-3-6.9-5.7-11.5c-1.3-2.3-2.9-4.8-4.8-7.4c-1.9-2.6-4.1-5.4-6.9-8.1
	c-1.3-1.4-2.8-2.6-4.1-3.8c-0.7-0.6-1.4-1.1-2.1-1.6c-0.7-0.5-1.4-1-2-1.5c-2.7-1.8-5.2-3.3-7.6-4.6c-4.7-2.5-8.7-4.1-11.8-5.2
	c-3.2-1.1-5.5-1.7-7.1-2c-1.6-0.3-2.3-0.4-2.3-0.4s0.5,0.8,1.6,2.2c1.1,1.5,2.7,3.6,4.9,6.4c1.1,1.4,2.2,3,3.6,4.7
	c0.6,0.9,1.3,1.8,2,2.8c0.7,1,1.4,2,2.1,3.1c3.1,4.4,6.9,9.4,11.6,14.9c2.3,2.7,4.6,5.2,6.8,7.5c1.1,1.1,2.2,2.2,3.3,3.3
	c1,1,2,1.9,3,2.8c1.8,1.7,3.4,3.5,4.9,5.1c1.5,1.6,2.8,3.1,4,4.4c2.4,2.6,4.3,4.6,5.6,5.9c1.3,1.3,2,1.9,2,1.9s-0.1-0.8-0.6-2.4
	c-0.5-1.6-1.3-4-2.7-7.3c-1.4-3.2-3.3-7.3-6.7-12c-0.4-0.6-0.9-1.2-1.4-1.8c-0.5-0.6-0.9-1.1-1.4-1.7c-0.9-1.1-1.9-2.3-2.9-3.5
	c-2.1-2.5-4.3-5.2-6.8-8.1c-0.4-0.5-0.9-1-1.3-1.5c4.1,4.1,7.4,8.2,10.4,11.7c3.2,3.8,5.9,7.1,8.3,9.6c2.3,2.5,4.3,4.3,5.7,5.4
	c0.7,0.6,1.3,0.9,1.6,1.1c0.4,0.2,0.6,0.3,0.6,0.3S82.3,149.2,79.7,143.1z"/>
<linearGradient id="SVGID_5_" gradientUnits="userSpaceOnUse" x1="49.4565" y1="121.7785" x2="86.3972" y2="121.7785">
	<stop  offset="0" style="stop-color:#0F92F7"/>
	<stop  offset="1" style="stop-color:#0988F5"/>
</linearGradient>
<path class="st5" d="M86.1,130c-0.6-4.1-2.1-6.8-3.3-8.3c-0.6-0.8-1.2-1.3-1.6-1.6c-0.4-0.3-0.7-0.4-0.7-0.4s0,0.3,0,0.8
	c0,0.5-0.1,1.2-0.1,2.2c0,1.3,0,2.9,0.1,4.9c-0.2-0.8-0.5-1.7-0.7-2.6c-0.5-1.5-1.1-3-1.8-4.2c-0.7-1.2-1.4-2.2-2.1-3.1
	c-1.4-1.8-2.7-3-3.8-3.9c-2.2-1.8-3.5-2.3-3.5-2.3s0.4,1.5,1.5,4.1c0.5,1.3,1.3,2.9,2.1,4.7c0.4,0.9,0.8,1.9,1.3,2.9
	c0.2,0.5,0.4,1.1,0.6,1.6c0.2,0.6,0.4,1.2,0.6,1.8c0,0,0,0.1,0,0.1c-1.5-2.6-3.3-5.6-5.6-8.9c-2.8-3.8-5.6-6.6-8.1-8.8
	c-2.5-2.2-4.7-3.7-6.4-4.9c-1.7-1.1-3.1-1.9-3.9-2.3c-0.9-0.4-1.3-0.6-1.3-0.6s0.4,0.4,1.2,1.1c0.8,0.7,2,1.8,3.6,3.2
	c1.6,1.4,3.5,3.3,5.7,5.5c2.2,2.3,4.7,5,7.1,8.4c4.8,6.9,8.2,12.4,10.6,15.9c0.3,0.5,0.7,1,1,1.5c0.3,0.6,0.5,1.1,0.8,1.6
	c1.3,2.6,2.3,3.8,2.3,3.8s0.4-1.3,0.4-4.1c0-0.6,0-1.4-0.1-2.2c0.3,1.1,0.5,2,0.7,2.7c0.6,1.9,0.8,2.8,0.8,2.8s0.2-0.1,0.6-0.5
	c0.3-0.4,0.8-1,1.2-1.9C86.1,137.2,86.8,134.2,86.1,130z"/>
<g>
	<g>
		<linearGradient id="SVGID_6_" gradientUnits="userSpaceOnUse" x1="110.0504" y1="107.8461" x2="147.7156" y2="107.8461">
			<stop  offset="0" style="stop-color:#D116C5"/>
			<stop  offset="1" style="stop-color:#B50DD8"/>
		</linearGradient>
		<path class="st6" d="M118.8,118.8c-1-1.1-2.2-1.7-3.2-2.2c-1-0.4-2-0.6-2.8-0.8c-1.6-0.2-2.7-0.1-2.7-0.1s0.2,0.3,0.6,0.7
			c-0.4-0.3-0.7-0.4-0.7-0.4s-0.1,0.9,0.1,2.2c0.2,1.3,0.8,3.1,2.1,4.4c0.9,1,2,1.4,2.8,1.5c0.4,0,0.8,0,1,0c0.2,0,0.4-0.1,0.4-0.1
			s0.1-0.6,0-1.3c0-0.3-0.1-0.6-0.2-0.9c1.1,1,2.1,1.5,2.9,1.7c0.9,0.2,1.5,0.2,1.5,0.2s0.1-0.6-0.1-1.6
			C120.3,121.2,119.9,120,118.8,118.8z M130.8,113.8c-2.8-1.4-5.5-2.3-7.9-2.9c-0.6-0.2-1.1-0.3-1.7-0.4c-0.2-0.1-0.4-0.2-0.6-0.2
			c-2-0.7-3.8-1-5.4-1.2c-3.1-0.3-4.9,0.1-4.9,0.1s1.5,1,3.5,2.8c2,1.7,4.4,4.1,6.8,6.7c1.9,2,3.4,3.2,4.6,4c1.2,0.8,2,1.2,2,1.2
			s0.4-0.9,0.3-2.5c0-0.1,0-0.2,0-0.3c0.7,0.4,1.3,0.6,1.8,0.8c1.5,0.6,2.5,0.6,2.5,0.6s0-0.9-0.6-2.4c2.1,1.1,3.8,1.8,5.1,2.4
			c1.8,0.7,2.9,1,2.9,1s-0.1-1.2-1.2-3C136.9,118.4,134.8,115.9,130.8,113.8z M141.1,105.5c-10-10.1-21.5-14-21.5-14
			s4.6,12.1,14,21.5c7.3,7.3,14.1,6.6,14.1,6.6S148.3,112.7,141.1,105.5z"/>
	</g>
</g>
<g>
	<g>
		<linearGradient id="SVGID_7_" gradientUnits="userSpaceOnUse" x1="128.6472" y1="96.9586" x2="162.0522" y2="96.9586">
			<stop  offset="0" style="stop-color:#F83510"/>
			<stop  offset="1" style="stop-color:#D92E0E"/>
		</linearGradient>
		<path class="st7" d="M161.2,97.1c-0.7-2.2-2-4.8-4.2-7.2c-3.1-3.4-6.8-5.6-10.3-7c-3.5-1.4-6.7-2-9.4-2.4
			c-2.7-0.4-4.8-0.4-6.3-0.4c-1.5,0-2.3,0.1-2.3,0.1s1.5,2.9,3.9,7.2c1.2,2.1,2.7,4.6,4.3,7.2c0.8,1.3,1.6,2.7,2.5,4
			c0.9,1.4,1.7,2.7,2.6,4.2c2.9,4.5,5.8,7.2,7.9,8.8c2.1,1.6,3.6,2.1,3.6,2.1s0.3-1.5-0.2-4.2c-0.5-2.7-1.7-6.5-4.6-11
			c-0.3-0.4-0.5-0.8-0.8-1.2c-0.3-0.4-0.6-0.8-0.8-1.2c-0.5-0.8-1.1-1.5-1.7-2.2c-1.2-1.4-2.3-2.7-3.5-3.8c-2.3-2.3-4.6-4.2-6.5-5.7
			c-0.4-0.3-0.8-0.6-1.2-0.9c0.6,0.4,1.2,0.8,1.8,1.2c2.1,1.5,4.5,3.3,6.9,5.5c1.2,1.1,2.4,2.3,3.5,3.5c1.1,1.3,2.2,2.6,3.1,4.1
			c3.1,4.5,4.9,8,6.3,10.3c1.3,2.3,2.1,3.5,2.1,3.5s0.1-0.3,0.3-1c0.1-0.7,0.3-1.8,0.2-3.2c-0.1-1.4-0.3-3.3-1-5.4
			c-0.7-2.1-1.7-4.6-3.5-7.1c-0.6-0.9-1.3-1.7-1.9-2.5c-0.1-0.1-0.3-0.3-0.4-0.4c0.5,0.5,1,1,1.5,1.5c3.6,4,5.3,7.6,6.5,10
			c1.2,2.5,1.7,3.7,1.7,3.7s0.2-0.3,0.4-1c0.2-0.7,0.4-1.8,0.5-3.3C162.1,101.3,161.9,99.3,161.2,97.1z"/>
	</g>
</g>
<g>
	<g>
		<linearGradient id="SVGID_8_" gradientUnits="userSpaceOnUse" x1="146.4834" y1="72.4503" x2="176.962" y2="72.4503">
			<stop  offset="0" style="stop-color:#F6A500"/>
			<stop  offset="1" style="stop-color:#F5A100"/>
		</linearGradient>
		<path class="st8" d="M164.2,83.5c-0.3-0.4-0.6-0.8-0.9-1.1l-0.5-0.6c-0.2-0.2-0.4-0.4-0.6-0.6l-0.6-0.5l-0.4-0.3
			c-0.3-0.2-0.6-0.4-0.8-0.6c-1.1-0.9-2.2-1.7-3.2-2.5c-2.1-1.7-3.9-3.2-5.5-4.4c-3.3-2.6-5.2-4.2-5.2-4.2s0.5,2.8,2.2,6.9
			c0.9,2,2.1,4.3,3.8,6.6c0.8,1.2,1.8,2.3,2.9,3.5c1.4,1.3,1.7,1.7,2.4,2.7c1.1,1.5,2.2,3,3.3,4.3c1,1.2,2,2.2,2.9,3
			c1.7,1.5,3,2.1,3,2.1s0.6-1.3,0.7-3.7c0-1.2-0.1-2.7-0.6-4.5C166.6,87.7,165.9,85.7,164.2,83.5z M176.8,78.9
			c-0.2-1.3-0.6-3-1.3-4.9c-0.7-1.9-1.7-4.1-3.2-6.5c-4.2-6.7-9-11.5-12.5-15c-3.5-3.4-6-5.2-6-5.2s0.2,3.6,1.2,9.2
			c0.5,2.8,1.2,6,2.1,9.6c1,3.5,2.2,7.3,4.2,11.1c0.4,0.8,0.7,1.4,1.1,2c0.4,0.6,0.7,1.2,1,1.8c0.7,1.1,1.3,2.2,1.8,3.1
			c1.1,1.9,2.1,3.4,2.9,4.6c1.6,2.4,2.5,3.5,2.5,3.5s0.3-0.3,0.6-0.9c0.4-0.7,0.9-1.7,1.3-3.2c0.4-1.5,0.7-3.5,0.5-6
			c-0.1-1.4-0.4-3-0.9-4.6c0.8,1.1,1.4,2,2,2.7c0.8,1,1.4,1.7,1.8,2.2c0.4,0.5,0.6,0.8,0.6,0.8s0.1-0.3,0.2-1
			C177,81.2,177,80.2,176.8,78.9z"/>
	</g>
</g>
<linearGradient id="SVGID_9_" gradientUnits="userSpaceOnUse" x1="170.9379" y1="55.8749" x2="192.7312" y2="55.8749">
	<stop  offset="0" style="stop-color:#6EDC00"/>
	<stop  offset="1" style="stop-color:#66CB00"/>
</linearGradient>
<path class="st9" d="M192.1,63.9c-0.2-0.8-0.5-1.6-0.8-2.5c-0.3-0.8-0.6-1.5-0.9-2.2c-3.8-8.4-7.7-15.7-10.8-20.8
	c-3.1-5.1-5.2-8.2-5.2-8.2s-1.2,3.8-2.2,9.8c-0.5,3-1,6.6-1.2,10.6c-0.1,4-0.1,8.4,1.2,13.1c2,6.5,3.8,10.8,5.2,13.7
	c1.4,2.8,2.3,4.1,2.3,4.1s0.4-1.6,0.3-4.8c-0.1-2.2-0.4-5.1-1.1-8.7c0.1,0.3,0.3,0.6,0.4,0.9c0.1,0.3,0.2,0.5,0.3,0.8
	c0.1,0.3,0.2,0.5,0.2,0.8c0.2,0.5,0.3,1,0.4,1.5c0.5,1.9,0.5,3.6,0.4,5c-0.1,1.4-0.4,2.6-0.6,3.4c-0.2,0.8-0.3,1.2-0.3,1.2
	s0.5,0,1.3-0.4c0.8-0.4,2-1.1,3.2-2.6c1.1-1.4,2.3-3.5,2.6-6.3c0.1,0.7,0.2,1.4,0.2,2.1c0.1,1.4,0,2.5-0.1,3.3
	c-0.1,0.8-0.2,1.2-0.2,1.2s0.4-0.1,1.2-0.5c0.8-0.4,1.9-1.3,2.9-2.9c1-1.6,1.9-3.9,1.9-6.9C192.8,67.1,192.5,65.5,192.1,63.9z"/>
<linearGradient id="SVGID_10_" gradientUnits="userSpaceOnUse" x1="188.1977" y1="40.9459" x2="228.6766" y2="40.9459">
	<stop  offset="0" style="stop-color:#0F92F7"/>
	<stop  offset="1" style="stop-color:#0988F5"/>
</linearGradient>
<path class="st10" d="M228.6,37c-0.2-1.1-0.6-2-1-2.6c-0.4-0.6-0.8-1-1.1-1.2c-0.3-0.2-0.4-0.3-0.4-0.3s0.1,0.2,0.1,0.6
	c0.1,0.4,0.1,0.9,0,1.5c-0.1,0.6-0.2,1.3-0.6,2c-0.4,0.7-0.9,1.3-1.6,1.8c-0.7,0.6-1.6,1-2.6,1.5c-1,0.5-2.1,0.8-3.4,1.2
	c-1.3,0.4-2.8,0.7-4.7,1.6c-0.6,0.3-1.3,0.6-1.9,1.1c0-1-0.1-2.1-0.1-3c-0.1-1.9-0.2-3.8-0.3-5.6c-0.2-3.5-0.4-6.7-0.6-9.4
	c-0.4-5.3-0.9-8.5-0.9-8.5s-1.7,2.4-4,6.3c-1.1,2-2.4,4.3-3.6,7.1c-0.9,1.9-1.6,4.1-2.1,6.4c-0.1-0.5-0.2-0.9-0.3-1.4
	c-0.7-3.6-2.4-6.3-3.9-8.3c-1.6-2-3-3.3-4.1-4.2c-1.1-0.8-1.7-1.2-1.7-1.2s0.1,0.7,0.2,1.9c0.1,1.2,0,2.9-0.2,4.9
	c-0.1,1-0.3,2.1-0.5,3.2c-0.1,0.6-0.2,1.1-0.3,1.7c-0.1,0.7-0.2,1.4-0.3,2.1c-0.3,2.8-0.4,5.8-0.2,8.9c0.3,4.7,1.7,8,2.9,10
	c1.2,2,2.3,2.9,2.3,2.9s0.9-1.1,1.6-3.4c0.6-1.8,1.2-4.3,1.2-7.5c0,0.1,0,0.1,0,0.2c1.2,5.4,3,9,4.3,11.3c1.4,2.2,2.4,3.1,2.4,3.1
	s0.2-1.3,0.1-3.9c-0.1-2-0.4-4.8-1-8.4c0.2-2.2,0.4-4.9,0.8-8.4c0.2-1.6,0.4-3.2,0.8-4.7c0.1-0.8,0.3-1.5,0.5-2.2
	c0.2-0.7,0.4-1.4,0.6-2.1c0.1-0.2,0.1-0.4,0.2-0.6c-0.3,1.4-0.7,2.8-1,4.3c-0.7,3.6-1,7.5-0.9,11.5c0.1,6.2,1,10.5,1.7,13.3
	c0.8,2.8,1.4,4,1.4,4s0.3-0.4,0.7-1.1c0.5,0.8,0.8,1.2,0.8,1.2s1.2-1.1,2.7-3.2c0.7-1,1.6-2.3,2.4-3.8c0.4-0.7,0.8-1.5,1.3-2.3
	c0.2-0.4,0.4-0.8,0.7-1.2c0.1-0.2,0.2-0.4,0.3-0.6c0.1-0.1,0.2-0.3,0.3-0.4c0.5-0.8,1-1.3,2.1-2c1-0.7,2.6-1.4,4.1-2.4
	c1.5-1,2.9-2.1,4-3.4c1.1-1.2,1.9-2.6,2.4-4C228.7,39.5,228.8,38.1,228.6,37z"/>
<path class="st0" d="M255.1,30.5l-1.3,2.1c-0.1,0.1-0.2,0.3-0.6,0.5c-0.4,0.3-1.3,0.9-2.7,1.3c-1.2,0.4-2.7,0.5-4.7,0.6
	c-0.3,0-0.6,0-0.9,0c-0.8,0-1.7,0-2.7-0.1l0,0l0,0l-1,0l-0.5,0l-0.6-0.1c-0.8-0.1-2.1-0.1-3.3-0.1l-0.3,0c-4.7,0-9.5,1.4-13.2,3.9
	c-3.7,2.4-5.5,5.4-6.5,7.5c-0.8,1.9-1.3,3.8-1.2,5.7c0,0.6,0.1,1.2,0.2,1.6c0.1,0.3,0.1,0.5,0.2,0.6l0.8,2.3l2.1-1.2l1.4-0.8
	c1.2-0.6,2.4-1.2,3.6-1.7c1.6-0.6,3.4-1.1,5.4-1.4c2.3-0.4,4.6-0.5,7.1-0.5l0.3,0c0.2,0,0.4,0,0.7,0c0.2,0,0.4,0,0.5,0l0.1,0l1.3,0
	c1,0,2.2,0,3.4-0.2l1.2-0.2l0.3,0l0.1,0l0.1,0c0.5-0.1,0.9-0.2,1.3-0.3l0.2-0.1c1.1-0.3,2.1-0.7,2.9-1c3.5-1.4,6.5-4,8.1-6.9
	c1.7-3.1,1.5-5.8,1.3-6.8c-0.1-0.9-0.4-1.5-0.7-1.9l0,0l0,0c-0.2-0.4-0.4-0.6-0.5-0.7L255.1,30.5L255.1,30.5z"/>
<path class="st0" d="M255.9,20.5l-1.1,1.5c0,0-0.1,0.1-0.3,0.2c-0.2,0.1-0.9,0.4-1.8,0.4c-0.2,0-0.4,0-0.6,0c-0.8,0-1.6-0.1-2.8-0.2
	c-0.3,0-0.7-0.1-1.1-0.1c-0.4,0-0.9-0.1-1.4-0.1l-0.1,0l-0.1,0c-0.3,0-0.6-0.1-1-0.1l-0.5-0.1c-0.5-0.1-1.5-0.1-2.4-0.1l-0.2,0
	c-3.6,0-7.1,1-9.8,2.9c-3,2-4.4,4.5-4.9,5.8c-0.6,1.5-0.9,3.1-0.8,4.6c0.1,1.1,0.4,1.7,0.5,1.9l0.8,1.6l1.7-0.7c0,0,0.4-0.2,1.1-0.4
	c0.6-0.2,1.6-0.5,2.7-0.7c1-0.2,2.3-0.3,3.8-0.4c1.2-0.1,2.5-0.1,4.2-0.1l0.9,0c0.1,0,0.2,0,0.3,0c0.2,0,0.3,0,0.5,0l0.3,0l0.7,0
	l0,0l0.1,0c0.8,0,1.6-0.1,2.4-0.2c0.6-0.1,1.5-0.2,2.3-0.5c0.3-0.1,0.7-0.2,1-0.3l0.1,0l0.1,0l0.6-0.2l0.4-0.2
	c1.3-0.5,2.6-1.3,3.7-2.3l0,0l0,0c1.1-1,1.9-2,2.4-3c1.4-2.6,1.1-4.7,0.9-5.6c-0.2-0.8-0.5-1.3-0.7-1.6l0,0l0,0
	c-0.2-0.3-0.4-0.5-0.6-0.7L255.9,20.5L255.9,20.5z"/>
<path class="st0" d="M249,54.3c0.2-1.5-0.1-2.4-0.2-2.7l-0.5-1.4l-1.5,0.1c0,0-0.1,0-0.1,0c-0.2,0-0.6,0-1.1-0.1
	c-0.8-0.1-2-0.3-3.6-0.6l-0.3-0.1c-1.5-0.3-3.1-0.6-5.1-0.8l-0.5,0c-0.4,0-0.7-0.1-1.1-0.1l0,0l0,0c-0.2,0-0.4,0-0.6,0
	c-0.4,0-0.8,0-1.2,0l0,0l0,0c-0.2,0-0.3,0-0.5,0l-0.2,0l-0.2,0c-0.4,0-0.7,0-1.1,0l-0.5,0l-0.3,0l0,0l0,0l-0.4,0
	c-0.6,0.1-1.1,0.1-1.7,0.2c-4.1,0.6-7.7,2.2-10.8,4.7c-2,1.6-3.5,3.5-4.7,5.5l-0.1,0.1l-0.1,0.1c-0.5,1.2-1.7,3.5-0.5,4.7
	c6.5,6.3,24.1,11,28.5,11.6c-0.1-5.1-0.9-9.8,0-10.2c2.6-1.5,4.9-3.5,6.4-5.8C248.5,57.5,248.9,55.4,249,54.3z"/>
<g>
	<g>
		<path class="st11" d="M240.7,65.8c-0.4,0.2-1,0.6-1.8,1.1c-0.8,0.4-1.7,1-2.7,1.4c-1.1,0.4-2.3,0.8-3.8,0.9
			c-0.8,0.1-1.7,0.1-2.5,0.1c-0.8,0-1.6,0-2.2,0.1c-1.4,0.1-2.6,0.2-3.5,0.3c-0.3,0-0.6,0.1-0.8,0.1c1.1,0.4,2.2,0.9,3.3,1.3
			c3.1,1.1,6.2,2,9.2,2.7c1-0.4,1.9-1,2.6-1.6c1.3-1.2,2-2.4,2.4-3.5c0.4-1,0.5-1.9,0.5-2.4c0-0.6-0.1-0.8-0.1-0.8
			S241.2,65.6,240.7,65.8z M254.2,34.2c-0.2-0.3-0.2-0.4-0.2-0.4s-0.3,0.5-1,1c-0.7,0.5-1.7,1.2-3.1,1.6c-1.4,0.4-2.9,0.6-5,0.7
			c-1,0-2.2,0-3.5-0.1c-0.3,0-0.7,0-1-0.1c-0.4,0-0.7-0.1-1.1-0.1c-0.6-0.1-1.8-0.1-2.9-0.1c-4.6-0.1-8.7,1.5-11.5,3.5
			c-2.9,2-4.5,4.5-5.4,6.5c-0.9,2.1-1,3.7-1,4.7c0,0.5,0.1,0.9,0.1,1.2c0.1,0.3,0.1,0.4,0.1,0.4s0.5-0.3,1.4-0.8
			c0.9-0.5,2.1-1.1,3.7-1.8c1.5-0.6,3.4-1.1,5.4-1.5c2.1-0.3,4.4-0.6,7.3-0.6c0.4,0,0.7,0,1.1,0c0.4,0,0.9,0,1.3,0
			c1,0,1.9,0,2.9-0.2c0.5-0.1,0.9-0.1,1.4-0.2c0.5-0.1,0.9-0.2,1.3-0.3c0.9-0.2,1.7-0.6,2.5-0.9c3.2-1.4,5.5-3.7,6.6-5.9
			c1.2-2.2,1.2-4.2,1-5.4C254.6,34.9,254.4,34.4,254.2,34.2z M245.3,52.3c-1-0.1-2.3-0.3-3.8-0.6c-1.5-0.3-3.2-0.6-5.3-0.8
			c-0.5,0-1-0.1-1.6-0.1c-0.5,0-1.1-0.1-1.7-0.1c-0.6,0-1.2,0-1.9,0l-0.5,0l-0.3,0l-0.4,0c-0.5,0.1-1,0.1-1.6,0.2
			c-4.3,0.7-7.5,2.5-9.8,4.3c-2,1.6-3.3,3.4-4.2,4.9c-0.3,0.9-0.7,2.4-0.4,3.6c0.1,0.5,0.3,1,0.5,1.4c1.2,0.8,2.6,1.5,3.9,2.2
			c0.1,0,0.1,0,0.2,0c1.7,0.1,3.7,0.1,5.8,0c2.1-0.1,4.2-0.3,6.5-0.7c0.8-0.1,2.9-0.5,4.4-0.9c1.6-0.5,3-1.1,4.3-1.8
			c2.6-1.5,4.5-3.3,5.7-5.1c1.2-1.8,1.7-3.5,1.8-4.7c0.1-1.2-0.1-1.8-0.1-1.8S246.3,52.4,245.3,52.3z M256.5,23.6
			c-0.1-0.2-0.2-0.3-0.2-0.3s-0.3,0.3-0.9,0.6c-0.6,0.3-1.5,0.6-2.6,0.6c-1.1,0.1-2.2,0-3.6-0.2c-0.7-0.1-1.5-0.1-2.5-0.3
			c-0.5,0-1-0.1-1.5-0.2c-0.4,0-1.4-0.1-2.2-0.1c-3.5,0-6.7,1-8.9,2.5c-2.3,1.5-3.6,3.4-4.2,4.9c-0.6,1.6-0.7,2.8-0.6,3.7
			c0.1,0.8,0.3,1.2,0.3,1.2s0.4-0.2,1.2-0.4c0.7-0.3,1.8-0.6,3-0.8c1.2-0.2,2.6-0.4,4.1-0.4c1.5-0.1,3.1-0.1,5.2-0.1
			c0.3,0,0.5,0,0.8,0c0.3,0,0.7,0,1,0c0.8,0,1.5,0,2.2-0.2c0.7-0.1,1.4-0.2,2.1-0.4c0.3-0.1,0.7-0.2,1-0.3c0.3-0.1,0.6-0.3,0.9-0.4
			c1.2-0.5,2.3-1.2,3.2-2c0.9-0.8,1.6-1.6,2-2.5c0.9-1.7,1-3.2,0.8-4.1C256.8,24.1,256.7,23.8,256.5,23.6z M258.3,14.6
			c0,0-0.2,0.2-0.7,0.3c-0.4,0.1-1.1,0.1-1.8,0c-0.7-0.1-1.5-0.3-2.5-0.5c-0.3,0-0.5-0.1-0.8-0.1c-0.3,0-0.6-0.1-0.9-0.1
			c-0.7-0.1-1.2-0.2-2.5-0.2c-2.3,0-4.3,0.6-5.9,1.5c-1.5,0.9-2.5,2.1-3.1,3.1c-0.5,1.1-0.6,1.9-0.6,2.5c0,0.6,0.2,0.9,0.2,0.9
			s1.3-0.4,3-0.4c1.7,0,3.6,0.2,6.4,0.2c0.2,0,0.4,0,0.5,0c0.2,0,0.4,0,0.6,0c0.5,0,1,0,1.4-0.1c0.9-0.1,1.8-0.4,2.6-0.7
			c1.6-0.7,2.9-1.7,3.6-2.8c0.8-1.1,0.9-2.2,0.8-2.9C258.7,14.8,258.3,14.6,258.3,14.6z M259.6,5.7c0-0.3-0.1-0.5-0.2-0.6
			C259.3,5,259.3,5,259.3,5c0,0-0.1,0.1-0.2,0.1c-0.1,0-0.3,0-0.5-0.1c-0.4-0.1-0.9-0.3-1.5-0.4c-0.6-0.1-1.3-0.2-2.1-0.2
			c-0.4,0-0.8,0-1.2,0.1c-0.2,0-0.4,0.1-0.6,0.1l-0.2,0l-0.2,0.1c-0.2,0.1-0.3,0.1-0.5,0.2c-2.4,1.2-3.4,3.1-3.7,4.6
			c-0.2,0.8-0.1,1.5,0,1.9c0.1,0.5,0.3,0.7,0.3,0.7c0.1-0.4,3.8,1.4,6.8-0.1c0.2-0.1,0.3-0.2,0.6-0.3c0.3-0.1,0.5-0.3,0.7-0.5
			c0.5-0.3,0.8-0.7,1.1-1.1c0.6-0.8,1-1.6,1.2-2.4C259.7,7,259.7,6.2,259.6,5.7z"/>
	</g>
	<g>
		<path class="st12" d="M240.7,65.8c-0.4,0.2-1,0.6-1.8,1.1c-0.8,0.4-1.7,1-2.7,1.4c-1.1,0.4-2.3,0.8-3.8,0.9
			c-0.8,0.1-1.7,0.1-2.5,0.1c-0.8,0-1.6,0-2.2,0.1c-1.4,0.1-2.6,0.2-3.5,0.3c-0.3,0-0.6,0.1-0.8,0.1c1.1,0.4,2.2,0.9,3.3,1.3
			c3.1,1.1,6.2,2,9.2,2.7c1-0.4,1.9-1,2.6-1.6c1.3-1.2,2-2.4,2.4-3.5c0.4-1,0.5-1.9,0.5-2.4c0-0.6-0.1-0.8-0.1-0.8
			S241.2,65.6,240.7,65.8z M254.2,34.2c-0.2-0.3-0.2-0.4-0.2-0.4s-0.3,0.5-1,1c-0.7,0.5-1.7,1.2-3.1,1.6c-1.4,0.4-2.9,0.6-5,0.7
			c-1,0-2.2,0-3.5-0.1c-0.3,0-0.7,0-1-0.1c-0.4,0-0.7-0.1-1.1-0.1c-0.6-0.1-1.8-0.1-2.9-0.1c-4.6-0.1-8.7,1.5-11.5,3.5
			c-2.9,2-4.5,4.5-5.4,6.5c-0.9,2.1-1,3.7-1,4.7c0,0.5,0.1,0.9,0.1,1.2c0.1,0.3,0.1,0.4,0.1,0.4s0.5-0.3,1.4-0.8
			c0.9-0.5,2.1-1.1,3.7-1.8c1.5-0.6,3.4-1.1,5.4-1.5c2.1-0.3,4.4-0.6,7.3-0.6c0.4,0,0.7,0,1.1,0c0.4,0,0.9,0,1.3,0
			c1,0,1.9,0,2.9-0.2c0.5-0.1,0.9-0.1,1.4-0.2c0.5-0.1,0.9-0.2,1.3-0.3c0.9-0.2,1.7-0.6,2.5-0.9c3.2-1.4,5.5-3.7,6.6-5.9
			c1.2-2.2,1.2-4.2,1-5.4C254.6,34.9,254.4,34.4,254.2,34.2z M245.3,52.3c-1-0.1-2.3-0.3-3.8-0.6c-1.5-0.3-3.2-0.6-5.3-0.8
			c-0.5,0-1-0.1-1.6-0.1c-0.5,0-1.1-0.1-1.7-0.1c-0.6,0-1.2,0-1.9,0l-0.5,0l-0.3,0l-0.4,0c-0.5,0.1-1,0.1-1.6,0.2
			c-4.3,0.7-7.5,2.5-9.8,4.3c-2,1.6-3.3,3.4-4.2,4.9c-0.3,0.9-0.7,2.4-0.4,3.6c0.1,0.5,0.3,1,0.5,1.4c1.2,0.8,2.6,1.5,3.9,2.2
			c0.1,0,0.1,0,0.2,0c1.7,0.1,3.7,0.1,5.8,0c2.1-0.1,4.2-0.3,6.5-0.7c0.8-0.1,2.9-0.5,4.4-0.9c1.6-0.5,3-1.1,4.3-1.8
			c2.6-1.5,4.5-3.3,5.7-5.1c1.2-1.8,1.7-3.5,1.8-4.7c0.1-1.2-0.1-1.8-0.1-1.8S246.3,52.4,245.3,52.3z M256.5,23.6
			c-0.1-0.2-0.2-0.3-0.2-0.3s-0.3,0.3-0.9,0.6c-0.6,0.3-1.5,0.6-2.6,0.6c-1.1,0.1-2.2,0-3.6-0.2c-0.7-0.1-1.5-0.1-2.5-0.3
			c-0.5,0-1-0.1-1.5-0.2c-0.4,0-1.4-0.1-2.2-0.1c-3.5,0-6.7,1-8.9,2.5c-2.3,1.5-3.6,3.4-4.2,4.9c-0.6,1.6-0.7,2.8-0.6,3.7
			c0.1,0.8,0.3,1.2,0.3,1.2s0.4-0.2,1.2-0.4c0.7-0.3,1.8-0.6,3-0.8c1.2-0.2,2.6-0.4,4.1-0.4c1.5-0.1,3.1-0.1,5.2-0.1
			c0.3,0,0.5,0,0.8,0c0.3,0,0.7,0,1,0c0.8,0,1.5,0,2.2-0.2c0.7-0.1,1.4-0.2,2.1-0.4c0.3-0.1,0.7-0.2,1-0.3c0.3-0.1,0.6-0.3,0.9-0.4
			c1.2-0.5,2.3-1.2,3.2-2c0.9-0.8,1.6-1.6,2-2.5c0.9-1.7,1-3.2,0.8-4.1C256.8,24.1,256.7,23.8,256.5,23.6z M258.3,14.6
			c0,0-0.2,0.2-0.7,0.3c-0.4,0.1-1.1,0.1-1.8,0c-0.7-0.1-1.5-0.3-2.5-0.5c-0.3,0-0.5-0.1-0.8-0.1c-0.3,0-0.6-0.1-0.9-0.1
			c-0.7-0.1-1.2-0.2-2.5-0.2c-2.3,0-4.3,0.6-5.9,1.5c-1.5,0.9-2.5,2.1-3.1,3.1c-0.5,1.1-0.6,1.9-0.6,2.5c0,0.6,0.2,0.9,0.2,0.9
			s1.3-0.4,3-0.4c1.7,0,3.6,0.2,6.4,0.2c0.2,0,0.4,0,0.5,0c0.2,0,0.4,0,0.6,0c0.5,0,1,0,1.4-0.1c0.9-0.1,1.8-0.4,2.6-0.7
			c1.6-0.7,2.9-1.7,3.6-2.8c0.8-1.1,0.9-2.2,0.8-2.9C258.7,14.8,258.3,14.6,258.3,14.6z M259.6,5.7c0-0.3-0.1-0.5-0.2-0.6
			C259.3,5,259.3,5,259.3,5c0,0-0.1,0.1-0.2,0.1c-0.1,0-0.3,0-0.5-0.1c-0.4-0.1-0.9-0.3-1.5-0.4c-0.6-0.1-1.3-0.2-2.1-0.2
			c-0.4,0-0.8,0-1.2,0.1c-0.2,0-0.4,0.1-0.6,0.1l-0.2,0l-0.2,0.1c-0.2,0.1-0.3,0.1-0.5,0.2c-2.4,1.2-3.4,3.1-3.7,4.6
			c-0.2,0.8-0.1,1.5,0,1.9c0.1,0.5,0.3,0.7,0.3,0.7c0.1-0.4,3.8,1.4,6.8-0.1c0.2-0.1,0.3-0.2,0.6-0.3c0.3-0.1,0.5-0.3,0.7-0.5
			c0.5-0.3,0.8-0.7,1.1-1.1c0.6-0.8,1-1.6,1.2-2.4C259.7,7,259.7,6.2,259.6,5.7z"/>
	</g>
</g>
<path class="st0" d="M182.3,46.7c8.9,2.9,18.2,11,23.1,18.3c1.6-0.2,3.2-0.3,4.8-0.3c14.2,0,26.6,7,33.4,17.5c0.3,0,0.6,0,0.9,0
	c16.2,1.1,29.4,10.6,29.4,26.9c0,16.3-12.2,31.6-28.5,31.6c-1.7,0-3.3-0.1-5-0.4c-0.3,0-0.5-0.1-0.8-0.1c-0.6,0-1.2,0.1-1.8,0.4
	c-4.3,1.8-9.9,3.3-17.2,4.1c-0.8,0.1-1.5,0.1-2.2,0.1c-5.3,0-9.8-2.3-14.7-5.7c0,0,0,0,0,0c-0.5,0-7,7.6-12,16.5
	c-3.3,5.9-5.5,12.9-6.7,17c0.2,1.9,0.4,3.8,0.4,5.7c0.1,6.9-1.1,13.3-3.4,19.2c2.3,2.2,5.1,4.9,7.8,7.8c6.4,6.9,17.8,23,18.1,23.4
	c4.4,6.1-1.1,23.4-15.6,33.3c-7.6,5.2-16.5,7.5-23.7,7.5c-6.5,0-11.7-1.8-13.5-5.1c-0.7-1.2-1.2-4.5-1.2-4.5s-3.5-14.8-8.5-28.3
	c-0.2-0.6-0.4-1.2-0.6-1.7c-5.3,1.7-10.9,2.8-16.8,3.3c-0.7,0.1-1.4,0.1-2.2,0.1c-4.1,0-8.1-0.9-11.9-1.4
	c-1.9,13.6-1.5,31.4-1.5,31.4l0,0c0.2,1.8,0.1,3.3-0.4,4.7c-1.7,4.5-9.4,7.7-18.8,7.7c-5.8,0-12.3-1.2-18.4-4.1
	C59,264.2,50.7,248,54.1,241.3c0.2-0.5,8.9-18.3,14.1-26.1c1.7-2.5,3.4-4.9,5-7.1c-4.5-7.9-6.8-17.1-6.1-26.7
	c2-30.2,24.9-56,57.8-56.6c0.4,0,0.8,0,1.3,0c4.1,0,8.1,0.4,11.9,1.1c3.5-1.1,10.5-3.9,18-11.3c7.7-7.5,13.5-17,16.2-21.8
	c1.2-4.8,3.5-9.3,6.5-13.2c-0.8-2.7-1.2-5.9-1.2-9.6C177.5,61,179.3,52.9,182.3,46.7 M180.8,43l-1.2,2.3c-3.3,6.7-5.1,15.3-5.1,24.6
	c0,3.3,0.3,6.3,1,9c-2.8,3.9-4.9,8.2-6.1,12.7c-2.8,4.9-8.3,13.8-15.5,20.8c-6.6,6.5-12.7,9.2-16.1,10.4c-3.9-0.7-7.8-1-11.7-1
	c-0.4,0-0.9,0-1.3,0c-16.3,0.3-31.4,6.8-42.6,18.1c-10.7,10.9-17.1,25.6-18.1,41.3c-0.6,9.3,1.3,18.4,5.6,26.6c-1.4,2-2.8,3.9-4,5.7
	c-4.5,6.7-11.4,20.5-14.1,26.1l-0.1,0.3c-1.5,2.9-1.4,6.8,0.1,11.3c2.4,7.1,9.7,17.4,22,23.2c6.1,2.8,12.9,4.3,19.7,4.3
	c10.8,0,19.5-3.9,21.6-9.7c0.3-0.8,0.5-1.7,0.6-2.6l0.1,0l0-0.5c0.1-0.8,0-1.7,0-2.6l0-0.1c0-0.2-0.3-15.2,1.1-27.9
	c0.1,0,0.1,0,0.2,0c2.9,0.5,5.9,1,9.1,1c0.8,0,1.6,0,2.4-0.1c5-0.4,10-1.3,14.7-2.6c4.5,12.3,7.7,25.6,8,27c0.2,1.2,0.7,3.9,1.5,5.4
	c2.4,4.2,8.2,6.6,16.2,6.6c8.7,0,18-2.9,25.4-8c11.3-7.7,16.8-19.1,18-26.4c0.8-4.7,0.2-8.5-1.7-11.1l-0.2-0.3
	c-3.6-5.1-12.6-17.5-18.2-23.5c-2-2.1-4.1-4.3-6.5-6.6c2.1-5.9,3-12.1,2.9-18.5c0-1.8-0.2-3.6-0.4-5.4c1.1-3.8,3.2-10.3,6.3-15.8
	c3.5-6.1,7.6-11.6,9.8-14.1c4,2.6,8.7,4.9,14.3,4.9c0.8,0,1.7-0.1,2.6-0.2c7.1-0.8,13.1-2.3,18-4.3c0.2-0.1,0.4-0.1,0.6-0.1
	c0.1,0,0.2,0,0.3,0c1.8,0.3,3.6,0.5,5.5,0.5c8.6,0,16.6-3.8,22.6-10.7c5.6-6.5,8.9-15.2,8.9-23.9c0-16.4-12.7-28.4-31.6-29.8
	c-7.8-11-20.8-17.5-35-17.5c-1.1,0-2.2,0-3.4,0.1c-5-6.8-14.1-14.9-23.7-18L180.8,43L180.8,43z"/>
<path class="st0" d="M206.7,67.2l3.7-2.9c-6.1-9-17.2-18.1-26.8-21.2l-3.3-1.1l0,0l-1.5,3.1c-3.4,6.9-5.2,15.5-5.2,25.1
	c0,3.2,0.1,5.4,1,8.9s3.2,5.5,3.2,5.5l4-3.7L206.7,67.2z"/>
<g>
	<path class="st13" d="M244.5,82.2c-0.3,0-0.6,0-0.9,0c-6.8-10.5-19.2-17.5-33.4-17.5c-1.6,0-3.2,0.1-4.8,0.3
		c-4.9-7.4-14.3-15.5-23.1-18.3c-3.1,6.2-4.8,14.3-4.8,23.3c0,3.7,0.4,6.9,1.2,9.6c-3.1,3.9-5.3,8.4-6.5,13.2
		c-2.7,4.8-8.5,14.3-16.2,21.8c-7.6,7.4-14.5,10.2-18,11.3c-4.3-0.8-8.7-1.2-13.2-1.1c-32.9,0.7-55.8,26.5-57.8,56.6
		c-0.6,9.6,1.6,18.8,6.1,26.7c-1.6,2.1-3.3,4.6-5,7.1c-5.2,7.8-13.9,25.6-14.1,26.1c-3.4,6.7,4.9,22.9,20.7,30.4
		c15.8,7.4,34.5,3.7,37.2-3.6c0.5-1.3,0.6-2.9,0.4-4.7l0,0c0,0-0.4-17.8,1.5-31.4c4.5,0.6,9.2,1.8,14.1,1.3
		c5.9-0.5,11.5-1.6,16.8-3.3c0.2,0.6,0.4,1.1,0.6,1.7c5,13.6,8.5,28.3,8.5,28.3s0.5,3.3,1.2,4.5c3.8,6.8,22.9,7.5,37.3-2.4
		c14.4-9.9,20-27.2,15.6-33.3c-0.3-0.4-11.7-16.6-18.1-23.4c-2.7-2.9-5.4-5.6-7.8-7.8c2.3-5.9,3.6-12.3,3.4-19.2
		c0-1.9-0.2-3.8-0.4-5.7c1.2-4.2,3.4-11.1,6.7-17c5.1-9.1,11.8-16.7,12.1-16.5c5.5,3.9,10.6,6.3,16.9,5.6c7.3-0.9,13-2.3,17.2-4.1
		c0.8-0.3,1.7-0.4,2.6-0.3c1.6,0.3,3.3,0.4,5,0.4c16.3,0,28.5-15.3,28.5-31.6C273.9,92.8,260.7,83.3,244.5,82.2z"/>
</g>
<g>
	<path class="st13" d="M205.5,65c-4.9-7.4-14.3-15.5-23.1-18.3c-3.1,6.2-4.8,14.3-4.8,23.3c0,3.7,0.4,6.9,1.2,9.6
		c1.3,3.7,7.6,11.6,19.4,4C210.1,76,206.9,67.3,205.5,65z"/>
</g>
<path class="st0" d="M249.3,140.9c-10.1-0.9-18.5-6.8-23.1-15.1c1.8,6.5,5.9,12.2,11.3,16.1c1,0.2,2,0.3,3,0.4
	c3.8,0.4,7.4-0.2,10.8-1.4C250.6,141,250,141,249.3,140.9z"/>
<ellipse transform="matrix(0.9675 -0.2529 0.2529 0.9675 -17.2217 68.8832)" class="st0" cx="259.3" cy="101.4" rx="1.9" ry="4.2"/>
<path class="st0" d="M218.8,99.9c-1.2-2.3-0.5-5.1,1.7-6.5c2.2-1.4,5-0.8,6.5,1.1l4.1-2.7c-2.7-3.8-7.9-4.8-11.9-2.3
	c-4,2.6-5.3,7.8-2.9,12L218.8,99.9z"/>
<path class="st0" d="M197.1,121.8c0-5.8,1.6-9.8,4.6-12.6c-4.8,2.7-7.3,6.9-7.3,14.1c0,12.6,10.3,24.5,22.8,23.1
	C204.8,143.9,197.1,133.8,197.1,121.8z"/>
<g>
	<path class="st0" d="M178,77.4l-1.8,2.8c2.3,4.4,5.6,6.6,9.7,7.3C182.5,85.5,179.8,82.2,178,77.4z"/>
</g>
<g>
	<path class="st0" d="M207.8,63.1c-1,0-2.1,0.1-3,0.1c1.1,2.3,2,4.6,2.5,6.7c0.4,1.7,0.8,3.3,1.1,4.8c0.9-2.7,1.2-5.4,0.7-7.7
		C208.7,65.8,208.3,64.5,207.8,63.1z"/>
</g>
<path class="st0" d="M185.5,60.4c0,0-0.6,7.9,2.3,13.8c2.1,4.1,4.3,6.5,5.4,7.5c0.4,0.4,1,0.5,1.6,0.4c1-0.3,2.8-1.1,4.4-2.5
	c1.3-1.2,2.1-2.1,2.5-2.7c0.4-0.5,0.4-1.1,0.1-1.6c-0.7-1.2-2.3-3.9-6.3-7.8C191.3,63.2,185.5,60.4,185.5,60.4z"/>
<path class="st0" d="M94,236.1c-13.3-6.2-27.6-4.3-33.9,0.5c7.3-2.8,18.8-3.2,29.6,1.9c15.8,7.4,24,22.8,21.3,30.2
	c-0.5,1.3-1.4,2.4-2.7,3.4c3.6-1.4,5.1-6.6,5.3-9.2C114.1,254.5,109.8,243.5,94,236.1z"/>
<g>
	<path class="st0" d="M155.3,264c1.2-7.1,9.5-18.5,22.2-25.9c15.5-9.1,29.9-7.6,33.2-2.5c0.1,0.2,0.3,0.5,0.4,0.7
		c0.3-2,0-3.6-0.7-4.8c-3.3-5.1-17.8-6.7-33.2,2.5C164,241.9,154.6,254.5,155.3,264C155.3,263.9,155.3,263.9,155.3,264z"/>
</g>
<path class="st0" d="M78.6,252.8c2.3,0,5,0.4,7.7,1.5c6.9,2.8,11.1,8.5,10.3,11.2c-0.5,1.6-3.4,2.7-7.3,2.7c-2.5,0-5.3-0.5-8-1.6
	c-6.9-2.8-11.1-8.8-10.1-11.2C71.9,253.9,74.8,252.8,78.6,252.8 M78.6,249.8L78.6,249.8c-3.9,0-8.6,1.2-10.1,4.4
	c-0.4,1-0.8,2.6,0.2,4.9c1.4,3.4,5.4,7.9,11.5,10.3c2.9,1.2,6.1,1.8,9.1,1.8c5.5,0,9.3-1.8,10.1-4.9c1.3-4.7-4.3-11.6-12.1-14.8
	C84.6,250.4,81.5,249.8,78.6,249.8L78.6,249.8z"/>
<path class="st0" d="M195.6,244.2c0.6,0,1.1,0.1,1.3,0.4c1.2,1.2-3.6,7.3-10.6,12c-5.5,3.6-11,5.6-13.6,5.6c-0.7,0-1.2-0.2-1.4-0.5
	c-0.8-1.4,3.5-7.1,10.5-11.8C187.5,246.1,193,244.2,195.6,244.2 M195.6,241.2L195.6,241.2c-3.6,0-9.8,2.5-15.4,6.1
	c-4.1,2.7-14.2,10.9-11.5,15.7c0.5,0.9,1.6,2,4,2c3.6,0,9.8-2.5,15.2-6.1c5.6-3.7,11.8-9.7,12.2-13.5c0.1-1.2-0.2-2.3-1-3.1
	C198.2,241.6,197,241.2,195.6,241.2L195.6,241.2z"/>
<g>
	<path class="st11" d="M96.6,265.5c-0.8,2.7-8.3,4-15.3,1.2c-6.9-2.8-11.1-8.8-10.1-11.2c1.1-2.4,8.1-3.9,15-1.1
		C93.2,257.1,97.3,262.8,96.6,265.5z"/>
</g>
<g>
	<path class="st11" d="M196.9,244.6c1.2,1.2-3.6,7.3-10.6,12c-7,4.7-14.1,6.5-14.9,5.1c-0.8-1.4,3.5-7.1,10.5-11.8
		C188.9,245.2,195.7,243.4,196.9,244.6z"/>
</g>
<g>
	<path class="st0" d="M103.9,196.3c-9.7-3.4-19.7-0.8-22.6,2.5c4-1.9,11.7-2.8,19.5-0.1c10.2,3.6,16.5,11.6,16,15.2
		c-0.4,2.1-1,5-1.6,8c-1.1,5.9-1.6,12.4-1.6,12.4l2.9,0.1c0,0,0.1-3.9,1-9.4c0.9-5.8,2-10,2-10c0.3-0.4,0.5-0.9,0.6-1.5
		C121,209.4,114.7,200.1,103.9,196.3z"/>
</g>
<path class="st0" d="M178.8,190.3c-0.9-1-2.9-3.4-3.9-4.5c-0.1-0.2-0.2-0.4-0.4-0.5c-1.9-2-11.6,0.2-21.3,6.6
	c-8.6,5.7-11.8,11.6-14.2,16c2.2-3.2,6.7-7.7,12.7-11.7c9.2-6.1,19.8-9.3,21.5-7.8l0,0c0,0,1.5,1.8,4,4.3c2.4,2.5,5,5.1,5,5.1
	l1.7-2.2C183.9,195.6,180,191.6,178.8,190.3z"/>
<g>
	<line class="st14" x1="172.3" y1="194.4" x2="167.8" y2="198.2"/>
	<path class="st14" d="M167.8,198.8c-0.2,0-0.3-0.1-0.5-0.2c-0.2-0.3-0.2-0.6,0.1-0.8l4.5-3.8c0.3-0.2,0.6-0.2,0.8,0.1
		c0.2,0.3,0.2,0.6-0.1,0.8l-4.5,3.8C168,198.7,167.9,198.8,167.8,198.8z"/>
</g>
<line class="st14" x1="124.2" y1="221.8" x2="123.7" y2="229.6"/>
<line class="st14" x1="134.9" y1="222.8" x2="137.2" y2="227.9"/>
<g>
	<line class="st14" x1="175.6" y1="200.6" x2="170.3" y2="203.2"/>
	<path class="st14" d="M170.3,203.8c-0.2,0-0.4-0.1-0.5-0.3c-0.1-0.3,0-0.7,0.3-0.8l5.3-2.6c0.3-0.1,0.7,0,0.8,0.3
		c0.1,0.3,0,0.7-0.3,0.8l-5.3,2.6C170.5,203.8,170.4,203.8,170.3,203.8z"/>
</g>
<g>
	<line class="st14" x1="186.1" y1="220.5" x2="181.8" y2="223.3"/>
	<path class="st14" d="M181.8,223.8c-0.2,0-0.3-0.1-0.4-0.2c-0.2-0.2-0.1-0.5,0.1-0.7l4.3-2.8c0.2-0.2,0.5-0.1,0.7,0.1
		c0.2,0.2,0.1,0.5-0.1,0.7l-4.3,2.8C182,223.8,181.9,223.8,181.8,223.8z"/>
</g>
<path class="st14" d="M185.8,162.6c-0.2-0.2-0.5-0.2-0.7-0.1l-1,0.8c-0.1-0.3-0.1-0.5-0.2-0.8l1.1-0.7c0.3-0.2,0.3-0.6,0.2-0.8
	c-0.2-0.3-0.6-0.3-0.8-0.2l-0.8,0.5c-2.1-6.6-5.4-12.6-9.8-17.8l1.3-1.1c0.3-0.3,0.4-0.7,0.1-1.1c-0.3-0.3-0.7-0.4-1.1-0.1l-1.3,1.1
	c-4-4.5-8.8-8.3-14.1-11.4l1.4-2c0.2-0.2,0.1-0.5-0.1-0.7c-0.2-0.2-0.5-0.1-0.7,0.1l-1.5,2.1c-1.1-0.6-2.2-1.2-3.3-1.8
	c-0.3-0.1-0.6-0.1-0.8,0.1l-0.6,0.5c-0.4,0.3-0.3,1,0.2,1.2c1.1,0.5,2.2,1.1,3.2,1.7l-0.7,1c-0.2,0.2-0.1,0.5,0.1,0.7
	c0.1,0.1,0.2,0.1,0.3,0.1c0.2,0,0.3-0.1,0.4-0.2l0.8-1c5.1,3,9.7,6.8,13.6,11.1l-0.8,0.7c-0.3,0.3-0.4,0.7-0.1,1.1
	c0.1,0.2,0.4,0.3,0.6,0.3c0.2,0,0.3-0.1,0.5-0.2l0.8-0.7c4.4,5.2,7.8,11,10,17.4l-1.2,0.8c-0.3,0.2-0.3,0.6-0.2,0.8
	c0.1,0.2,0.3,0.3,0.5,0.3c0.1,0,0.2,0,0.3-0.1l0.9-0.6c0.1,0.3,0.2,0.6,0.3,0.9l-1.2,1c-0.2,0.2-0.2,0.5-0.1,0.7
	c0.1,0.1,0.2,0.2,0.4,0.2c0.1,0,0.2,0,0.3-0.1l0.8-0.7c0.2,0.8,0.4,1.6,0.6,2.4l1.1-1.9c0.1-0.2,0.1-0.4,0.1-0.5
	c-0.1-0.4-0.2-0.8-0.3-1.2l1.3-1.1C186,163.1,186,162.8,185.8,162.6z"/>
<path class="st14" d="M93.9,198.2c-0.2,0-0.5,0.3-0.7,0.8l-3.2,6.5l-2.1-0.5c-0.3-0.1-0.6,0.1-0.7,0.4c-0.1,0.3,0.1,0.6,0.4,0.7
	l1.8,0.5l-6.2,12.6l-1.9,0.1c-0.3,0-0.5,0.2-0.5,0.5c0,0.3,0.2,0.5,0.5,0.5c0,0,0,0,0,0l1.3-0.1l-0.9,1.8l-1.7-0.5
	c-0.3-0.1-0.5,0.1-0.6,0.3c-0.1,0.3,0.1,0.5,0.3,0.6l1.6,0.5l-3.1,6.4c-0.2,0.5-0.1,0.9,0.3,0.9c0.4,0,1-0.4,1.2-0.9l2.8-6l1,0.3
	c0,0,0.1,0,0.1,0c0.2,0,0.4-0.1,0.5-0.4c0.1-0.3-0.1-0.5-0.3-0.6l-0.9-0.3l1-2.2l1.3-0.1c0.3,0,0.5-0.2,0.5-0.5
	c0-0.3-0.3-0.5-0.5-0.5l-0.8,0l5.7-12.4l1.2,0.3c0,0,0.1,0,0.1,0c0.3,0,0.5-0.2,0.6-0.5c0.1-0.3-0.1-0.6-0.4-0.7l-1-0.2l3-6.6
	C94,198.6,94.1,198.2,93.9,198.2z"/>
<g>
	<path class="st14" d="M185.6,226.8c-0.2,0-0.4-0.1-0.5-0.3c0-0.1-2.1-6.2-9-18.5c-6.9-12.3-10.3-16.3-10.3-16.3
		c-0.2-0.2-0.2-0.5,0-0.7c0.2-0.2,0.5-0.2,0.7,0c0.1,0.2,3.5,4.1,10.4,16.5c6.9,12.4,9,18.7,9,18.7c0.1,0.3-0.1,0.5-0.3,0.6
		C185.7,226.8,185.6,226.8,185.6,226.8z"/>
</g>
<path class="st14" d="M140.6,223.5c-0.2-0.4-0.7-0.6-1.1-0.4c0,0-1.3,0.6-3.3,1.3l-0.8-1.9c-0.1-0.2-0.3-0.3-0.5-0.2
	c-0.2,0.1-0.3,0.3-0.2,0.5l0.8,1.8c-2,0.6-4.5,1.2-7.4,1.5c-1.4,0.1-2.7,0.2-3.7,0.2l0.3-4.5c0-0.2-0.2-0.4-0.4-0.4
	c-0.2,0-0.4,0.2-0.4,0.4l-0.3,4.6c-2.8-0.1-3.8-0.4-3.9-0.5c-0.4-0.2-0.9,0-1.1,0.5c-0.2,0.4,0,0.9,0.5,1.1c0.2,0.1,1.4,0.5,4.4,0.6
	l-0.1,1.6c0,0.2,0.2,0.4,0.4,0.4c0,0,0,0,0,0c0.2,0,0.4-0.2,0.4-0.4l0.1-1.6c1.1,0,2.4,0,3.9-0.2c3.1-0.2,5.8-0.9,7.9-1.6l0.8,1.8
	c0.1,0.1,0.2,0.2,0.4,0.2c0.1,0,0.1,0,0.2,0c0.2-0.1,0.3-0.3,0.2-0.5l-0.8-1.7c2-0.7,3.3-1.3,3.4-1.4
	C140.6,224.5,140.8,223.9,140.6,223.5z"/>
<g>
	<g>
		<g>
			<path class="st0" d="M46.4,112.8c0,0,2.4,2.5,6,6.6c1.8,2,3.8,4.4,6,7.2c1.1,1.4,2.1,2.8,3.2,4.3c1.1,1.5,2.2,3.1,3.3,4.7
				c3.6,4.9,6.5,8,8.5,10c2,2,3.1,2.7,3.1,2.7s-0.6-1.2-2.1-3.6c-1.5-2.4-3.9-5.9-7.4-10.7c-1.2-1.7-2.4-3.3-3.6-4.8
				c-1.2-1.6-2.4-3-3.6-4.3c-2.4-2.6-4.7-4.8-6.7-6.6C49.1,114.6,46.4,112.8,46.4,112.8z"/>
		</g>
	</g>
</g>
<g>
	<g>
		<g>
			<path class="st0" d="M5.7,93.4c0,0,4.5,5.4,11.3,13.9c3.4,4.3,7.4,9.3,11.6,14.9c2.1,2.8,4.2,5.8,6,8.9c1.9,3.4,4.1,6.6,6.5,9.8
				c3.8,4.9,7.5,8.7,10.8,11.6c3.3,3,6.4,5,8.9,6.3c2.5,1.3,4.4,2,5.7,2.5c1.3,0.4,1.9,0.6,1.9,0.6s-0.6-0.3-1.8-1
				c-1.2-0.7-3-1.7-5.3-3.3c-2.3-1.6-5-3.8-8-6.8c-3-3-6.5-6.8-10.1-11.5c-2.5-3.3-4.8-6.6-6.7-10c-2.1-3.4-4.4-6.4-6.7-9.2
				c-4.5-5.6-8.8-10.3-12.3-14.3C10.3,97.9,5.7,93.4,5.7,93.4z"/>
		</g>
	</g>
</g>
<g>
	<g>
		<g>
			<path class="st0" d="M27.1,136.4c0,0,0.2,0.9,0.8,2.5c0.6,1.6,1.7,3.9,3.4,6.4c1.7,2.5,4.1,5.3,7.3,7.7c0.4,0.3,0.8,0.6,1.2,0.9
				c0.4,0.3,0.9,0.6,1.3,0.8c0.4,0.3,0.9,0.6,1.3,0.8c0.5,0.2,0.9,0.5,1.4,0.8c1.9,1,3.8,1.8,5.8,2.7c6.2,2.6,10.9,3.8,14,4.3
				c3.1,0.5,4.5,0.4,4.5,0.4s-1.4-0.5-4.2-1.7c-2.9-1.1-7.2-2.9-13.2-5.4c-1-0.5-2.1-0.9-3.1-1.3c-0.5-0.2-1-0.4-1.5-0.7
				c-0.5-0.2-0.9-0.5-1.4-0.7c-0.5-0.2-0.9-0.4-1.4-0.7c-0.4-0.3-0.9-0.5-1.3-0.8c-0.9-0.5-1.7-1.1-2.5-1.6
				c-3.1-2.2-5.6-4.6-7.4-6.8c-1.8-2.2-3.1-4.2-3.9-5.5C27.4,137.3,27.1,136.4,27.1,136.4z"/>
		</g>
	</g>
</g>
<g>
	<g>
		<g>
			<path class="st0" d="M121.8,114.8c0,0,2.1,3.6,5.5,6.5c2.6,2.3,4.5,2.2,4.5,2.2s-0.3-2-2.8-4.2
				C125.4,116.1,121.8,114.8,121.8,114.8z"/>
		</g>
	</g>
</g>
<g>
	<g>
		<g>
			<path class="st0" d="M112.5,118.4c0,0,1,2.1,2.7,4c1.3,1.5,2.3,1.6,2.3,1.6s-0.1-1.1-1.3-2.5
				C114.4,119.6,112.5,118.4,112.5,118.4z"/>
		</g>
	</g>
</g>
<g>
	<g>
		<g>
			<path class="st0" d="M124.2,98.4c0,0,1.1,2.1,3.2,5.3c1.1,1.6,2.4,3.4,4,5.2c0.8,0.9,1.7,1.9,2.6,2.8c0.9,0.9,2,1.8,3.1,2.6
				c3.3,2.5,6,4,7.7,4.8c1.8,0.8,2.7,1,2.7,1s-0.6-0.8-2-2.1c-1.4-1.4-3.6-3.3-6.8-5.8c-1.2-0.9-2.2-1.7-3.2-2.5
				c-1-0.9-1.9-1.7-2.8-2.5c-1.7-1.7-3.3-3.2-4.5-4.5C125.7,100,124.2,98.4,124.2,98.4z"/>
		</g>
	</g>
</g>
<g>
	<g>
		<g>
			<path class="st0" d="M145.2,89.1c0,0,1.2,1.4,2.9,3.8c0.8,1.2,1.7,2.6,2.6,4.2c0.8,1.6,1.5,3.4,2.1,5.3c0.9,3,1.5,5.2,2,6.6
				c0.5,1.4,0.8,2.1,0.8,2.1s0.3-0.7,0.5-2.3c0.2-1.6,0.2-4-0.8-7.2c-0.7-2.2-1.7-4.3-2.9-5.9c-1.2-1.6-2.4-2.9-3.5-3.9
				C146.7,89.9,145.2,89.1,145.2,89.1z"/>
		</g>
	</g>
</g>
<g>
	<g>
		<g>
			<path class="st0" d="M158.5,58.1c0,0-0.1,2.7,0.4,6.9c0.3,2.1,0.7,4.6,1.4,7.2c0.4,1.3,0.9,2.7,1.5,4.1c0.3,0.7,0.7,1.4,1.1,2.1
				c0.4,0.7,0.8,1.3,1.3,1.9c2.8,3.8,5.3,6.1,7,7.5c1.7,1.4,2.6,1.8,2.6,1.8s-0.5-0.9-1.7-2.7c-1.2-1.8-3.1-4.5-5.8-8.1
				c-0.5-0.6-0.9-1.3-1.3-1.9c-0.2-0.3-0.4-0.6-0.6-0.9c-0.2-0.3-0.3-0.6-0.5-0.9c-0.6-1.3-1.2-2.5-1.7-3.8
				c-0.9-2.5-1.6-4.8-2.2-6.7C159.1,60.5,158.5,58.1,158.5,58.1z"/>
		</g>
	</g>
</g>
<g>
	<g>
		<g>
			<path class="st0" d="M152.2,77.7c0,0,1.5,1.1,3.7,3c1.1,1,2.3,2.1,3.4,3.6c0.6,0.7,1,1.5,1.5,2.4c0.5,0.9,0.9,1.8,1.4,2.7
				c1.4,2.9,2.5,4.9,3.2,6.2c0.7,1.3,1.2,1.8,1.2,1.8s-0.1-0.7-0.6-2.1c-0.5-1.4-1.2-3.6-2.7-6.5c-1-2-2-3.9-3.3-5.4
				c-1.3-1.4-2.7-2.5-3.9-3.3C153.8,78.5,152.2,77.7,152.2,77.7z"/>
		</g>
	</g>
</g>
<g>
	<g>
		<g>
			<path class="st0" d="M174.5,37.4c0,0-0.2,1.3-0.2,3.3c0,1,0,2.2,0.1,3.5c0.1,1.3,0.3,2.7,0.7,4.1c0.5,2.2,1,3.7,1.4,4.7
				c0.4,1,0.7,1.4,0.7,1.4s0-0.5-0.1-1.6c-0.1-1-0.3-2.6-0.8-4.8c-0.7-3-1.1-5.6-1.4-7.6C174.7,38.6,174.5,37.4,174.5,37.4z"/>
		</g>
	</g>
</g>
<g>
	<g>
		<g>
			<path class="st0" d="M206.2,30.7c0,0-1.2,1.7-2.3,4.8c-0.6,1.5-1.2,3.4-1.6,5.4c-0.4,2.1-0.6,4.3-0.7,6.7
				c-0.1,3.6,0.2,6.1,0.6,7.8c0.4,1.6,0.7,2.4,0.7,2.4s0.3-0.8,0.6-2.4c0.3-1.6,0.6-4.2,0.7-7.6c0.1-2.4,0.2-4.7,0.3-6.7
				c0.2-2,0.4-3.8,0.7-5.4C205.7,32.5,206.2,30.7,206.2,30.7z"/>
		</g>
	</g>
</g>
<g>
	<g>
		<g>
			<path class="st0" d="M194.9,33.4c0,0,0.5,1.5,1.1,4c0.3,1.2,0.5,2.6,0.7,4.2c0.2,1.6,0.4,3.3,0.8,5.1c1,5.5,2.8,7.5,2.8,7.5
				s0.9-2.6-0.2-8c-0.4-1.9-0.8-3.6-1.2-5.3c-0.5-1.6-1.1-3-1.7-4.1C195.9,34.5,194.9,33.4,194.9,33.4z"/>
		</g>
	</g>
</g>
<g>
	<g>
		<g>
			<path class="st0" d="M192.6,36.4c0,0,0.3,4.1,1.2,8.5c0.7,3.5,1.5,4.8,1.5,4.8s0.2-1.6-0.5-5C193.8,39.9,192.6,36.4,192.6,36.4z"
				/>
		</g>
	</g>
</g>
<path class="st15" d="M98.2,155c0.8-0.8,2.2-2.8,2.2-4.6c0,0,0,0,0,0.1c0,0,0,0,0,0s-0.2,0.3-0.6,0.8c0-0.1,0-0.1,0-0.2
	c0.3-0.6,0.5-1.3,0.6-2c0.2-1.1-0.3-2.1-0.6-2.5c0,0,0,0,0,0.1c0,0-0.1-0.1-0.1-0.1s0,0.1,0,0.3c-0.2-0.8-0.8-1.3-0.8-1.3
	s0,0.1-0.1,0.4c-0.9-1.5-2.5-2.6-4.5-3c-2-0.4-4.1,0.1-6,1.2c0,0.1,0.1,0.2,0.1,0.4c0,0,0.6,0,1.2,0.2c1.4-0.6,2.9-0.8,4.3-0.6
	c1.8,0.3,3.2,1.4,4,2.9c0,0.1,0.1,0.2,0.1,0.2c-0.3-0.4-0.7-0.7-1-0.8c0.5,0.7,1.1,2.2,0.2,4.5c0-0.4-0.2-0.8-0.3-1
	c-0.6,2.4-1,2.9-1.3,3.5c0.1-0.3,0-0.5,0-0.7c0,0-0.3,0.7-1.1,1.7c-0.6,0.7-1.1,0.9-1.2,0.9c-0.1-0.1,0-0.2,0-0.3
	c0,0-0.3,0.1-0.6,0.3c-0.3,0.2-0.6,0.4-0.7,0.3c0.1-0.1,0.2-0.2,0.3-0.3c-0.1,0-0.4,0.2-0.9,0.2c-0.2,0-1.2,0-2.1-0.8
	c0.2,0,0.5,0,0.6,0.2c-0.1-0.3-0.6-0.3-0.9-0.5c-0.3-0.2-0.5-0.7-0.6-0.9c0.8,0.4,1.8,0.4,2.5,0.1c0.7-0.3,1.1-0.5,1.4-0.4
	c0.3,0.1,0.6-0.2,0.4-0.5c-0.1-0.3-0.6-0.8-1.4-0.7c-0.6,0-1.5,0.5-2.3-0.3c-0.7-0.7-0.5-1.1-0.4-1.4c0.1-0.2,0.3-0.4,0.5-0.5
	c0.1,0.1,0.2,0.1,0.2,0.1s0-0.1,0-0.1c0,0,0,0,0,0c0.1,0,0.3,0.2,0.3,0.2c0.1,0.1,0.1,0.2,0.1,0.2s0,0,0-0.1c0,0,0-0.1-0.1-0.2
	c0,0,0,0,0,0c0.1,0,0.1,0.1,0.2,0.2c0.1-0.1,0.2-0.3,0.2-0.5c0-0.2,0-0.2,0-0.3c0-0.1,0-0.1,0.1,0c0,0,0-0.1,0-0.1c0,0,0,0,0,0
	c0,0,0,0,0,0c0.2-0.2,1.5-0.6,1.6-0.6c0.1-0.1,0.3-0.2,0.4-0.3c0.1,0,0.3-0.3,0.4-0.5c0-0.1-0.1-0.2-0.2-0.3c0,0-0.2-0.1-0.4-0.1
	c0,0,0,0,0,0c-0.2,0-0.4-0.1-0.8-0.2c-0.3-0.1-0.5-0.3-0.6-0.5c0,0,0-0.1,0-0.1c0-0.1,0-0.1,0-0.2c0.3-0.5,0.8-1,1.4-1.3
	c0,0-0.1,0-0.1,0c0,0,0.3-0.1,0.3-0.1c0.1,0-0.2-0.1-0.4-0.1c-0.2,0-0.3,0-0.4,0.1c0.1,0,0.2-0.1,0.2-0.1c-0.3,0-0.6,0.1-0.9,0.3
	c0,0,0,0,0-0.1c-0.1,0-0.5,0.2-0.6,0.4c0,0,0-0.1,0-0.1c-0.1,0.1-0.2,0.1-0.3,0.2c0,0,0,0,0,0c-0.7-0.3-1.3-0.4-1.9-0.3
	c-0.1-0.2-0.3-0.5-0.4-0.9c0,0,0,0.1-0.1,0c0-0.2,0-0.6,0-0.9c0,0,0-0.1,0-0.1c0,0-0.1,0-0.3,0.2c-0.1,0.1-0.2,0.2-0.2,0.3
	c0,0.1-0.1,0.1-0.1,0.2c0,0,0.1-0.1,0-0.1c0,0-0.1,0.1-0.2,0.2c0,0.1-0.1,0.1-0.1,0.2c0,0,0,0,0,0c0,0,0-0.1,0-0.1
	c-0.1,0.2-0.2,0.3-0.4,0.5c-0.1,0.1-0.2,0.3-0.3,0.5c-0.1,0.2-0.2,0.5-0.3,0.8c0,0,0,0.1,0,0.1c-0.3,0.2-0.5,0.5-0.6,0.6
	c-0.4,0.4-0.9,1.1-1.5,2.3c0,0,0.3-0.4,0.7-0.9c0,0,0,0,0,0c-0.4,0.6-0.9,1.5-1.3,3c0,0,0.2-0.4,0.5-0.9c-0.3,1-0.4,2.2-0.1,3.6
	c0.2,1,0.6,1.9,1.1,2.5c0.1,0.1,0.2,0.3,0.3,0.4c0.6,0.8,1.7,1.9,2.8,2.3c-0.4-0.2-0.5-0.5-0.5-0.5s1.2,0.7,2.2,0.8
	c-0.3-0.1-0.3-0.3-0.3-0.3s2.8,0.7,4.7-0.3c0.4-0.2,0.7-0.5,0.9-0.7c0.5-0.2,1.1-0.4,1.8-0.8c1.1-0.7,1.4-1.3,1.7-1.9c0,0,0,0,0,0.1
	C98.2,155.3,98.2,155.1,98.2,155z"/>
</svg>
